<svg version="1.1" xmlns="http://www.w3.org/2000/svg" xmlns:xlink="http://www.w3.org/1999/xlink" x="0px" y="0px" width="108px"
	 height="108px" viewBox="0 0 108 108" enable-background="new 0 0 108 108" xml:space="preserve">
<g id="computer">
	<path id="base_5_" fill-rule="evenodd" clip-rule="evenodd" fill="#CDD1D4" d="M54,0c29.824,0,54,24.177,54,54
		c0,29.823-24.176,54-54,54C24.177,108,0,83.823,0,54C0,24.176,24.177,0,54,0z"/>
	<path id="computer_1_" fill-rule="evenodd" clip-rule="evenodd" fill="#434A50" d="M93.994,75.007c0,1.657-1.343,3-3,3h-6.979
		c-0.004,0-0.007,0.001-0.011,0.001h-60c-0.004,0-0.007-0.001-0.011-0.001h-6.999c-1.657,0-3-1.343-3-3v-3h8.01V32.008
		c0-1.105,0.895-2,2-2h60c1.105,0,2,0.895,2,2v39.999h7.99V75.007z"/>
	<path id="screen" fill-rule="evenodd" clip-rule="evenodd" fill="#FFFFFF" d="M26.001,33.999h55.997v36.001H26.001V33.999z"/>
	<path id="content" fill-rule="evenodd" clip-rule="evenodd" fill="#CDD1D4" d="M73.008,64.004h-38c-0.552,0-1-0.448-1-1
		s0.448-1,1-1h38c0.552,0,1,0.448,1,1S73.56,64.004,73.008,64.004z M73.008,60.004h-38c-0.552,0-1-0.448-1-1s0.448-1,1-1h38
		c0.552,0,1,0.448,1,1S73.56,60.004,73.008,60.004z M73.008,54.004h-10c-0.552,0-1-0.448-1-1v-10c0-0.552,0.448-1,1-1h10
		c0.552,0,1,0.448,1,1v10C74.008,53.556,73.56,54.004,73.008,54.004z M57.008,54.004h-22c-0.552,0-1-0.448-1-1v-10
		c0-0.552,0.448-1,1-1h22c0.552,0,1,0.448,1,1v10C58.008,53.556,57.56,54.004,57.008,54.004z M35.008,66.004h38c0.552,0,1,0.448,1,1
		c0,0.552-0.448,1-1,1h-38c-0.552,0-1-0.448-1-1C34.008,66.451,34.456,66.004,35.008,66.004z"/>
</g></svg>