<?xml version="1.0" encoding="UTF-8"?>
<svg width="108px" height="108px" viewBox="0 0 108 108" version="1.1" xmlns="http://www.w3.org/2000/svg" xmlns:xlink="http://www.w3.org/1999/xlink">
    <!-- Generator: Sketch 41.2 (35397) - http://www.bohemiancoding.com/sketch -->
    <title>Untitled</title>
    <desc>Created with Sketch.</desc>
    <defs></defs>
    <g id="Page-1" stroke="none" stroke-width="1" fill="none" fill-rule="evenodd">
        <g id="growth">
            <g id="Page-1">
                <g id="growth">
                    <g id="Group" fill="#FFFFFF">
                        <path d="M54,0 C83.823,0 108,24.177 108,54 C108,83.824 83.823,108 54,108 C24.177,108 0,83.824 0,54 C0,24.177 24.177,0 54,0 Z" id="base_27_"></path>
                        <path d="M10.104,85.433 L56.173,48.998 L59.002,51.826 L22.567,97.896 C17.763,94.449 13.551,90.236 10.104,85.433 Z" id="Shape"></path>
                        <path d="M78.782,42.904 C79.792,43.473 80.23,44.99 79.897,46.148 C78.99,49.294 72.975,54.074 72.975,54.074 C71.88,54.903 70.98,54.587 70.98,52.978 C70.98,51.95 71.018,49.015 71.018,49.015 C71.018,47.652 69.99,46.994 68.002,46.994 C64.636,46.994 63.306,48.683 63.306,48.683 C62.915,49.074 62.283,49.074 61.892,48.683 L59.296,46.093 C58.905,45.702 58.905,45.07 59.296,44.679 C59.296,44.679 60.985,43.349 60.985,39.983 C60.985,37.996 60.327,36.966 58.964,36.966 C58.964,36.966 56.029,37.005 55.002,37.005 C53.393,37.005 53.076,36.104 53.905,35.01 C53.905,35.01 58.684,28.995 61.832,28.088 C63.059,27.735 64.679,28.253 65.157,29.394 C72.109,16.253 86.475,10.012 98,10.012 C98,20.901 92.437,35.816 78.782,42.904 Z M85.993,17.993 C83.783,17.993 81.993,19.784 81.993,21.993 C81.993,24.202 83.783,25.993 85.993,25.993 C88.202,25.993 89.993,24.202 89.993,21.993 C89.993,19.784 88.202,17.993 85.993,17.993 Z" id="Shape"></path>
                    </g>
                    <g id="Group">
                        <g id="base_26_-Clipped" fill="#CDD1D4">
                            <path d="M54,0 C83.823,0 108,24.177 108,54 C108,83.824 83.823,108 54,108 C24.177,108 0,83.824 0,54 C0,24.177 24.177,0 54,0 Z" id="base_26_"></path>
                        </g>
                        <path d="M10.104,85.433 L56.173,48.998 L59.002,51.826 L22.567,97.896 C17.763,94.449 13.551,90.236 10.104,85.433 Z" id="Shape" fill="#FFFFFF"></path>
                        <path d="M78.782,42.904 C79.792,43.473 80.23,44.99 79.897,46.148 C78.99,49.294 72.975,54.074 72.975,54.074 C71.88,54.903 70.98,54.587 70.98,52.978 C70.98,51.95 71.018,49.015 71.018,49.015 C71.018,47.652 69.99,46.994 68.002,46.994 C64.636,46.994 63.306,48.683 63.306,48.683 C62.915,49.074 62.283,49.074 61.892,48.683 L59.296,46.093 C58.905,45.702 58.905,45.07 59.296,44.679 C59.296,44.679 60.985,43.349 60.985,39.983 C60.985,37.996 60.327,36.966 58.964,36.966 C58.964,36.966 56.029,37.005 55.002,37.005 C53.393,37.005 53.076,36.104 53.905,35.01 C53.905,35.01 58.684,28.995 61.832,28.088 C63.059,27.735 64.679,28.253 65.157,29.394 C72.109,16.253 86.475,10.012 98,10.012 C98,20.901 92.437,35.816 78.782,42.904 Z M85.993,17.993 C83.783,17.993 81.993,19.784 81.993,21.993 C81.993,24.202 83.783,25.993 85.993,25.993 C88.202,25.993 89.993,24.202 89.993,21.993 C89.993,19.784 88.202,17.993 85.993,17.993 Z" id="Shape" fill="#434A50"></path>
                    </g>
                </g>
            </g>
        </g>
    </g>
</svg>