<svg version="1.1" id="Layer_1" xmlns="http://www.w3.org/2000/svg" xmlns:xlink="http://www.w3.org/1999/xlink" x="0px" y="0px"
	 width="120px" height="120px" viewBox="0 0 120 120" enable-background="new 0 0 120 120" xml:space="preserve">
<path fill-rule="evenodd" clip-rule="evenodd" fill="#FFFFFF" d="M60-0.01c33.14,0,60.005,26.868,60.005,60.01
	c0,33.143-26.865,60.01-60.005,60.01S-0.005,93.143-0.005,60C-0.005,26.857,26.86-0.01,60-0.01z"/>
<path fill-rule="evenodd" clip-rule="evenodd" fill="#DE5833" d="M60,5.135c30.298,0,54.86,24.563,54.86,54.864
	c0,30.301-24.561,54.864-54.86,54.864C29.702,114.863,5.14,90.3,5.14,59.999C5.14,29.699,29.702,5.135,60,5.135z"/>
<path display="none" fill-rule="evenodd" clip-rule="evenodd" fill="#FFFFFF" d="M60,5.135c30.298,0,54.86,24.563,54.86,54.864
	c0,30.301-24.561,54.864-54.86,54.864C29.702,114.863,5.14,90.3,5.14,59.999C5.14,29.699,29.702,5.135,60,5.135z"/>
<path fill-rule="evenodd" clip-rule="evenodd" fill="#FFFFFF" d="M78.417,53.904c0,21.495-18.089-1.579-18.089,25.381
	c0,13.601,11.897,32.789,13.233,34.974c-12.868,6.436-30.715,0.486-30.715,0.486S31.799,70.784,29.613,48.439
	c-1.26-12.885,5.69-19.913,19.161-21.661c-5.902-1.906-16.22-1.345-16.22-1.345c0.277-3.603,5.473-4.295,5.473-4.295
	c-2.702-1.386-5.137-2.087-5.137-2.087c14.416-2.028,23.494,2.947,27.35,8.04C75.854,30.834,78.417,48.747,78.417,53.904z"/>
<path fill-rule="evenodd" clip-rule="evenodd" fill="#D5D7D8" d="M48.592,26.722c-5.929-1.837-16.037-1.289-16.037-1.289
	c0.042-0.55,0.209-1.025,0.444-1.447c2.319-0.031,10.839,0.047,16.308,2.678C49.307,26.664,48.985,26.683,48.592,26.722z
	 M36.147,31.245c-3.029,3.263-5.653,7.254-4.708,14.103c3.992,28.941,13.564,67.585,13.564,67.585l-2.902-1.206
	c-2.515-10.295-10.647-44.462-12.488-63.288C28.842,40.556,31.159,34.876,36.147,31.245z M37.849,21.167
	c0.109-0.019,0.179-0.029,0.179-0.029c-2.702-1.386-5.137-2.087-5.137-2.087c0.725-0.102,1.426-0.174,2.123-0.241
	c0.816,0.427,2.215,1.207,3.839,2.323C38.853,21.133,38.449,21.123,37.849,21.167z"/>
<path fill-rule="evenodd" clip-rule="evenodd" fill="#FED30A" d="M57.026,69.285c0-6.901,9.42-9.092,12.923-9.092
	c9.623,0,23.141-6.157,26.537-6.051c3.397,0.106,5.586,1.474,5.586,3.066c0,2.324-19.167,10.923-26.67,10.217
	c-7.071-0.665-8.744,0.119-8.744,3.066c0,2.548,5.095,4.777,10.721,4.777c8.42,0,16.705-3.803,19.233-1.941
	c2.159,1.591-5.787,7.185-14.835,7.185C72.73,80.513,57.026,76.185,57.026,69.285z"/>
<path fill-rule="evenodd" clip-rule="evenodd" fill="#65BB46" d="M46.734,95.54c1.356-1.266,12.658,4.16,12.658,4.16
	s1.446-1.718,4.972-1.628c3.526,0.09,4.249,1.357,4.249,1.357s8.85-6.96,11.796-6.24c1.825,0.446,2.036,15.916-0.043,17.001
	c-2.079,1.085-11.844-3.346-11.844-3.346s-1.628,2.623-4.882,2.623c-3.255,0-5.334-0.633-5.334-0.633s-6.977,5.043-9.217,4.394
	C46.426,112.455,45.378,96.806,46.734,95.54z"/>
<path fill-rule="evenodd" clip-rule="evenodd" fill="#43A244" d="M58.765,100.558c-0.894,0.894-1.704,7.511,0.287,8.69
	c1.991,1.178,7.19,0.038,8.692-1.213c0.731-0.609-7.556,1.491-8.369,0.162C57.806,105.633,59.659,99.664,58.765,100.558z"/>
<path fill-rule="evenodd" clip-rule="evenodd" fill="#2D4F8D" d="M65.141,40.492c1.517-3.776,6.034-3.67,8.539-0.424
	C70.469,38.198,67.541,38.586,65.141,40.492z M44.878,56.066c-2.198,0-3.98-1.782-3.98-3.98c0-2.198,1.782-3.981,3.98-3.981
	c2.198,0,3.98,1.782,3.98,3.981C48.858,54.284,47.076,56.066,44.878,56.066z M47.514,50.639c0-0.641-0.52-1.161-1.16-1.161
	c-0.641,0-1.161,0.52-1.161,1.161c0,0.641,0.52,1.16,1.161,1.16C46.994,51.799,47.514,51.28,47.514,50.639z M36.947,44.409
	c-0.388-6.494,5.399-6.317,8.822-4.235C40.899,39.645,38.64,40.422,36.947,44.409z M71.555,46.231c1.905,0,3.45,1.545,3.45,3.45
	c0,1.905-1.545,3.45-3.45,3.45c-1.905,0-3.45-1.544-3.45-3.45C68.105,47.776,69.65,46.231,71.555,46.231z M72.834,49.433
	c0.555,0,1.006-0.45,1.006-1.006c0-0.556-0.45-1.006-1.006-1.006c-0.556,0-1.006,0.45-1.006,1.006
	C71.828,48.983,72.278,49.433,72.834,49.433z"/>
</svg>