<svg xmlns="http://www.w3.org/2000/svg" xmlns:xlink="http://www.w3.org/1999/xlink" width="435" height="296" viewBox="0 0 435 296"><use fill="#230545" transform="translate(292.72 255)" xlink:href="#a"/><use fill="#230545" transform="translate(229.78 254)" xlink:href="#b"/><use fill="#EEE" xlink:href="#c"/><use fill="#CCC" transform="translate(134 174)" xlink:href="#d"/><use fill="#EEE" transform="translate(134 169)" xlink:href="#e"/><use fill="silver" transform="translate(206 51)" xlink:href="#f"/><use fill="#FFF" transform="rotate(-180 119 26)" xlink:href="#g"/><use fill="#CCC" transform="translate(129 58)" xlink:href="#h"/><use fill="#FFF" transform="rotate(-180 99.5 84.5)" xlink:href="#i"/><use fill="#CCC" transform="rotate(-180 99.5 78)" xlink:href="#j"/><use fill="#E5E5E5" transform="translate(141 137)" xlink:href="#k"/><use fill="#E5E5E5" transform="translate(141 128)" xlink:href="#k"/><use fill="#E5E5E5" transform="translate(141 146)" xlink:href="#k"/><use fill="#E5E5E5" transform="translate(141 119)" xlink:href="#k"/><use fill="#E5E5E5" transform="translate(141 110)" xlink:href="#k"/><use fill="#E5E5E5" transform="translate(141 101)" xlink:href="#k"/><use fill="#E5E5E5" transform="translate(141 92)" xlink:href="#k"/><use fill="#E5E5E5" transform="translate(141 83)" xlink:href="#k"/><use fill="#E5E5E5" transform="translate(141 74)" xlink:href="#k"/><use fill="#FFF" transform="translate(236 46)" xlink:href="#l"/><use fill="#FFF" transform="translate(100 46)" xlink:href="#l"/><use fill="#CCC" transform="translate(169 156)" xlink:href="#m"/><use fill="#CCC" transform="translate(167 160)" xlink:href="#n"/><use fill="#7CB5E0" transform="translate(199 48)" xlink:href="#o"/><use fill="#7CB5E0" transform="translate(109 48)" xlink:href="#p"/><use fill="#60A5DA" transform="translate(109 52)" xlink:href="#q"/><use fill="#60A5DA" transform="translate(199 52)" xlink:href="#q"/><use fill="#CCC" transform="translate(366.5 74.5)" xlink:href="#r"/><use fill="#FFF" transform="translate(364 72)" xlink:href="#s"/><use fill="#CCC" transform="translate(67 142)" xlink:href="#t"/><use fill="#FFF" transform="translate(65 140)" xlink:href="#u"/><use fill="#CC8729" transform="translate(167 119)" xlink:href="#v"/><use fill="#FFB652" transform="translate(155 119)" xlink:href="#w"/><use fill="#FFB652" transform="translate(262.5 122.51)" xlink:href="#x"/><use fill="#CC8729" transform="translate(246.26 122)" xlink:href="#y"/><use fill="#CC8729" transform="rotate(-180 116.5 128)" xlink:href="#z"/><use fill="#FFB652" transform="translate(164 223)" xlink:href="#A"/><use fill="#CC8729" transform="translate(189 223)" xlink:href="#B"/><use fill="#CC8729" transform="translate(215 223)" xlink:href="#C"/><use fill="#CC8729" transform="translate(155 249.5)" xlink:href="#D"/><use fill="#CC8729" transform="rotate(11.25 -643.187 1517.601)" xlink:href="#E"/><use fill="#5A9C4B" transform="rotate(56.25 -21.461 331.651)" xlink:href="#F"/><use fill="#5A9C4B" transform="translate(247 150)" xlink:href="#G"/><use fill="#6FBF5C" transform="translate(242 151.06)" xlink:href="#H"/><use fill="#5A9C4B" transform="translate(254 187)" xlink:href="#I"/><use fill="#230545" transform="translate(172.27 199)" xlink:href="#J"/><use fill="#544463" transform="translate(167.27 199)" xlink:href="#K"/><use fill="#9C452D" transform="translate(149 264)" xlink:href="#L"/><use fill="#DE5833" transform="translate(166 261)" xlink:href="#M"/><use fill="#230545" transform="translate(189.72 208)" xlink:href="#N"/><use fill="#544463" transform="translate(189.22 202.26)" xlink:href="#O"/><use fill="#FFC680" transform="translate(224 190)" xlink:href="#P"/><use fill="#6FBF5C" transform="translate(269.5 153.01)" xlink:href="#Q"/><use fill="#5A9C4B" transform="translate(274.5 153.48)" xlink:href="#R"/><use fill="#FFC680" transform="translate(246 190)" xlink:href="#P"/><use fill="#E5E5E5" transform="translate(193.67 165)" xlink:href="#S"/><use fill="#E5E5E5" transform="translate(230 195)" xlink:href="#T"/><use fill="#CC8729" transform="translate(236 119)" xlink:href="#U"/><use fill="#FFB652" transform="translate(224 119)" xlink:href="#V"/><use fill="#230545" transform="translate(238.43 105.28)" xlink:href="#W"/><use fill="#230545" transform="translate(245 125)" xlink:href="#X"/><use fill="#FFC680" transform="translate(259 133)" xlink:href="#Y"/><use fill="#FFC680" transform="translate(247 114)" xlink:href="#Z"/><use fill="#230545" transform="translate(248.01 100.83)" xlink:href="#aa"/><use fill="#544463" transform="translate(251.65 112.6)" xlink:href="#ab"/><use fill="#230545" transform="translate(265 114)" xlink:href="#ac"/><use fill="#FFF" transform="translate(254.77 140)" xlink:href="#ad"/><use fill="#FFC680" transform="translate(270 127)" xlink:href="#ae"/><use fill="#FFB652" transform="translate(272 129)" xlink:href="#af"/><use fill="#FFF" transform="translate(273 136)" xlink:href="#ag"/><use fill="#FFF" transform="translate(273 135)" xlink:href="#ah"/><use fill="#544463" transform="translate(238.45 100.87)" xlink:href="#ai"/><use fill="#FFC680" transform="translate(244 128)" xlink:href="#aj"/><use fill="#60A5DA" transform="translate(241 126)" xlink:href="#ak"/><use fill="#230545" transform="translate(259 130)" xlink:href="#al"/><use fill="#230545" transform="translate(245 130)" xlink:href="#am"/><use fill="#5A9C4B" transform="translate(332 228)" xlink:href="#an"/><use fill="#5A9C4B" transform="translate(333 211)" xlink:href="#ao"/><use fill="#5A9C4B" transform="translate(333 195)" xlink:href="#ap"/><use fill="#6FBF5C" transform="translate(282 228)" xlink:href="#aq"/><use fill="#6FBF5C" transform="translate(303 195)" xlink:href="#ar"/><use fill="#6FBF5C" transform="translate(289 211)" xlink:href="#as"/><use fill="#6FBF5C" transform="translate(331 220)" xlink:href="#at"/><use fill="#DE5833" transform="translate(312 247)" xlink:href="#au"/><use fill="#9C452D" transform="translate(337 247)" xlink:href="#av"/><use fill="#DE5833" transform="translate(311 246)" xlink:href="#aw"/><use fill="#9C452D" transform="translate(313.5 253)" xlink:href="#ax"/><use fill="#7D3623" transform="translate(318 239)" xlink:href="#ay"/><use fill="#FFB652" transform="translate(316.75 266)" xlink:href="#az"/><use fill="#DE5833" transform="translate(339 266)" xlink:href="#aA"/><use fill="#FFF" transform="translate(188.3 165)" xlink:href="#aB"/><use fill="#CCC" transform="translate(207.6 179)" xlink:href="#aC"/><use fill="#FFF" transform="translate(291.5 32.5)" xlink:href="#aD"/><use fill="#EEE" transform="translate(289 48)" xlink:href="#aE"/><use fill="#CCC" transform="translate(289 30)" xlink:href="#aF"/><use fill="#CCC" transform="translate(39 67)" xlink:href="#aG"/><use fill="#FFF" transform="translate(43 71)" xlink:href="#aH"/><use fill="#EEE" transform="rotate(45 -56.608 128.552)" xlink:href="#aI"/><use fill="#EEE" transform="rotate(-45 128.127 -21.542)" xlink:href="#aJ"/><use fill="silver" transform="translate(60.5 88.5)" xlink:href="#aK"/><use fill="#EEE" transform="translate(28 276)" xlink:href="#aL"/><use fill="#CCC" transform="translate(149 276)" xlink:href="#aM"/><use fill="#DE5833" transform="translate(62 249)" xlink:href="#aN"/><use fill="#9C452D" transform="translate(64 267)" xlink:href="#aO"/><use fill="#9C452D" transform="translate(119.96 240.95)" xlink:href="#aP"/><use fill="#DE5833" transform="translate(119.05 240)" xlink:href="#aQ"/><use fill="#9C452D" transform="translate(105 241)" xlink:href="#aR"/><use fill="#DE5833" transform="translate(104 240)" xlink:href="#aS"/><use fill="#9C452D" transform="translate(102.87 251.81)" xlink:href="#aT"/><use fill="#DE5833" transform="translate(102.84 246)" xlink:href="#aU"/><use fill="#FFF" transform="translate(110 255)" xlink:href="#aV"/><use fill="#FFF" transform="translate(110 259)" xlink:href="#aW"/><use fill="#FFF" transform="translate(125 255)" xlink:href="#aX"/><use fill="#FFF" transform="translate(125 259)" xlink:href="#aY"/><use fill="#FFC680" transform="translate(116 254)" xlink:href="#aZ"/><use fill="#DE5833" transform="translate(122.06 256)" xlink:href="#ba"/><use fill="#230545" transform="translate(126 251)" xlink:href="#bb"/><use fill="#230545" transform="translate(116 251)" xlink:href="#bb"/><use fill="#9C452D" transform="translate(126 270)" xlink:href="#bc"/><use fill="#DE5833" transform="translate(109 270)" xlink:href="#bd"/><use fill="#9C452D" transform="translate(78.61 258.73)" xlink:href="#be"/><use fill="#DE5833" transform="translate(72 271)" xlink:href="#bf"/><use fill="#9C452D" transform="translate(89 271)" xlink:href="#bc"/><use fill="#CCC" transform="translate(67 276)" xlink:href="#bg"/><use fill="#DE5833" transform="translate(62 265)" xlink:href="#bh"/><use fill="#9C452D" transform="translate(92 278)" xlink:href="#bi"/><use fill="#9C452D" transform="translate(109 270)" xlink:href="#bj"/><use fill="#EEE" transform="translate(383 81)" xlink:href="#bk"/><use fill="#EEE" transform="translate(373 88)" xlink:href="#bl"/><defs><path id="a" d="M14.66 22h2.4L11.2 0H0l14.66 22z"/><path id="b" d="M8.74 0h9.2L2.6 23H0L6.14 0h2.6z"/><path id="c" d="M421.61 36l-22-22.25A46.314 46.314 0 0 0 366.68 0H258.19a46.31 46.31 0 0 0-32.74 13.56l-1.88 1.88A46.31 46.31 0 0 1 190.83 29H48.69a46.33 46.33 0 0 0-32.75 13.56l-2.38 2.38A46.33 46.33 0 0 0 0 77.69v10.23a46.26 46.26 0 0 0 13.45 32.62l8.1 8.17A46.26 46.26 0 0 1 35 161.33a57.13 57.13 0 0 0 16.73 40.4l3.77 3.77A69.991 69.991 0 0 0 105 226h255.35a44.19 44.19 0 0 0 31.42-13.11l2.84-2.88A46.272 46.272 0 0 0 408 177.45V158.8a46.293 46.293 0 0 1 13.39-32.56l.22-.23A46.289 46.289 0 0 0 435 93.44V68.56A46.293 46.293 0 0 0 421.61 36z"/><path id="d" d="M72 0H0v7h72V0z"/><path id="e" d="M72 0H0v9h72V0z"/><path id="f" d="M0 0v127.76A12.15 12.15 0 0 0 11.86 140H28V0H0z"/><path id="g" d="M136 0H0v4h136V0z"/><path id="h" d="M80 0H0v3h80V0z"/><path id="i" d="M58 0H0v102h58V0z"/><path id="j" d="M58 0H0v89h58V0z"/><path id="k" d="M58 0H0v2h58V0z"/><path id="l" d="M2 8c1.105 0 2-1.79 2-4s-.895-4-2-4-2 1.79-2 4 .895 4 2 4z"/><path id="m" d="M2 0H0v6h2V0z"/><path id="n" d="M6 4H0l2-4h2l2 4z"/><path id="o" d="M0 0h32v140H16a16.002 16.002 0 0 1-16-16V0z"/><path id="p" d="M0 0h32v124a16.002 16.002 0 0 1-16 16H0V0z"/><path id="q" d="M32 0H0v6h32V0z"/><path id="r" d="M30 0H0v30h30V0z"/><path id="s" d="M30 5v25H5V5h25zm3-5H2a2 2 0 0 0-2 2v31a2 2 0 0 0 2 2h31a2 2 0 0 0 2-2V2a2 2 0 0 0-2-2z"/><path id="t" d="M20 0H0v22h20V0z"/><path id="u" d="M20 4v18H4V4h16zm2-4H2a2 2 0 0 0-2 2v22a2 2 0 0 0 2 2h20a2 2 0 0 0 2-2V2a2 2 0 0 0-2-2z"/><path id="v" d="M4.44 86.66L87 64.5c6.61-1.65 11.27-5.38 15.06-10.08a30.014 30.014 0 0 0 2.21-3.14 28.998 28.998 0 0 0 4.1-9.24l7.91-32.85c.112-.491.263-.972.45-1.44a1.87 1.87 0 0 1 .1-.25c.179-.46.39-.908.63-1.34l.06-.09a12.007 12.007 0 0 1 7.41-5.65 11.61 11.61 0 0 1 3-.42h4.52a8.997 8.997 0 0 1 8.802 7.131 9.001 9.001 0 0 1-.072 4.049l-26.09 106.94A30.002 30.002 0 0 1 85.94 141H6a6 6 0 0 1-6-6V92.45a6 6 0 0 1 4.44-5.79z"/><path id="w" d="M4.54 87.36L87 65.48a31.89 31.89 0 0 0 18.93-13.66 19.056 19.056 0 0 0 2.43-5.28l9.36-37.45A11.999 11.999 0 0 1 129.37 0H143a11.61 11.61 0 0 0-3 .42 11.998 11.998 0 0 0-8.65 8.77l-10.1 37.75a20.63 20.63 0 0 1-4.13 7.48c-3.79 4.7-8.45 8.43-15.06 10.08L19.5 86.66a5.999 5.999 0 0 0-4.44 5.79V135a6.002 6.002 0 0 0 6 6H6a6 6 0 0 1-6-6V93.18a6 6 0 0 1 4.54-5.82z"/><path id="x" d="M75.19 0H37.42a12 12 0 0 0-11.63 9.09L0 112.49h58.5L83.77 11.17A9 9 0 0 0 75.19 0z"/><path id="y" d="M105.2 11.23L79.82 113H0l9.12-36.56 31.1-7.77.55-.15a24.86 24.86 0 0 0 8-3.84c6.09-4.45 11.7-11.16 13.39-17.94l9.42-37.65A12 12 0 0 1 83.2 0h11.72v.17a11.15 11.15 0 0 1 1.74-.16 9 9 0 0 1 8.54 11.22z"/><path id="z" d="M64.94 0H6.06A6.06 6.06 0 0 0 0 6.06v18.88A6.06 6.06 0 0 0 6.06 31h58.88A6.06 6.06 0 0 0 71 24.94V6.06A6.06 6.06 0 0 0 64.94 0z"/><path id="A" d="M6 0a6 6 0 0 0-6 6v18a6 6 0 0 0 6 6h49V0H6z"/><path id="B" d="M0 30h5L17 0h-5L0 30z"/><path id="C" d="M15 30H0L3 0h12v30z"/><path id="D" d="M6.005 5.5h20v5h-20a6 6 0 0 1-6-6V0a5.32 5.32 0 0 0 6 5.5z"/><path id="E" d="M0 0a14 14 0 0 1 14 14v31a7 7 0 1 1-14 0V0z"/><path id="F" d="M14 7A7 7 0 1 0 0 7v38a7 7 0 1 0 14 0V7z"/><path id="G" d="M30.68 0H14.84a11.93 11.93 0 0 0-8.53 3.59A12.19 12.19 0 0 1 10 1.06v4.05l-5.86 7.32a6 6 0 0 0-1.08 5.74l2.11 6L0 50h28l8.56-42.82A6 6 0 0 0 30.68 0z"/><path id="H" d="M8.06 17.11a6 6 0 0 1 1.08-5.74L15 4.05V0a12.19 12.19 0 0 0-3.69 2.53l-.1.09c-.36.36-.694.744-1 1.15l-6.09 7.6a5.634 5.634 0 0 0-.82 1.3 5.93 5.93 0 0 0-.26 4.44l2.11 6L0 48.94h5l5.17-25.84-2.11-5.99z"/><path id="I" d="M8 16A8 8 0 1 0 8 0a8 8 0 0 0 0 16z"/><path id="J" d="M91.86 24l9.55-24h-1l-2 5H28a6.84 6.84 0 0 0-5.78 4.13L0 65h13l16.31-41h62.55z"/><path id="K" d="M35.86 0h-1c-5 0-10.6 4-12.58 9L0 65h5L27.22 9.13A6.84 6.84 0 0 1 33 5h70.42l2-5H35.86z"/><path id="L" d="M0 12h36V0H18L7.31 4.75C2.86 6.75 0 7.14 0 12z"/><path id="M" d="M0 15h40V3L25 0 7.31 7.75C2.86 9.75 0 10.14 0 15z"/><path id="N" d="M35.429 0L.169 53.06a1 1 0 0 0 .45 1.48l3 1.26 12.77 5.29 35.11-52.83a9.002 9.002 0 0 0 .89-8.26h-16.96z"/><path id="O" d="M47.72 1.74h2.13l-.28-.22A9 9 0 0 0 37.08 4L0 59.81l4.17 1.73L41.08 6c1.57-2.34 3.64-4.26 6.64-4.26z"/><path id="P" d="M20 7c0-3.87-4.48-7-10-7S0 3.13 0 7h20z"/><path id="Q" d="M5.129 41.828l7.27-36.35a6.85 6.85 0 0 1 4.24-5 6.338 6.338 0 0 0-1.17-.35 6.89 6.89 0 0 0-8.07 5.36l-7.27 36.35a6.84 6.84 0 0 0 9.23 7.68 6.84 6.84 0 0 1-4.23-7.69z"/><path id="R" d="M8.596 44.03l7.27-36.35A6.84 6.84 0 0 0 11.636 0a6.85 6.85 0 0 0-4.24 5L.126 41.35a6.84 6.84 0 0 0 4.23 7.68 6.85 6.85 0 0 0 4.24-5z"/><path id="S" d="M32.83 0H2A2 2 0 0 0 .08 2.56l8.83 30A2 2 0 0 0 10.83 34h30.83a2 2 0 0 0 1.92-2.56l-8.83-30A2 2 0 0 0 32.83 0z"/><path id="T" d="M0 0h26a1 1 0 0 1 1 1v2a1 1 0 0 1-1 1H0V0z"/><path id="U" d="M4.44 86.66L67 64.5c6.61-1.65 11.27-5.38 15.06-10.08a29.999 29.999 0 0 0 2.21-3.14 29 29 0 0 0 4.1-9.24l7.91-32.85c.112-.491.263-.972.45-1.44.027-.086.06-.17.1-.25.18-.46.39-.908.63-1.34l.06-.09a12.002 12.002 0 0 1 7.41-5.65 11.61 11.61 0 0 1 3-.42h4.52a8.997 8.997 0 0 1 8.802 7.131 9.001 9.001 0 0 1-.072 4.049L95.09 118.12A30.003 30.003 0 0 1 65.94 141H6a6 6 0 0 1-6-6V92.45a6 6 0 0 1 4.44-5.79z"/><path id="V" d="M109.37 0a12 12 0 0 0-11.64 9.09l-9.36 37.45a19.059 19.059 0 0 1-2.43 5.28c-4.28 6.82-11.32 11.06-18.93 13.66L4.54 87.36A6 6 0 0 0 0 93.18V135a6.003 6.003 0 0 0 6 6h15a6 6 0 0 1-6-6V92.45a6 6 0 0 1 4.44-5.79L82 64.5c6.45-2.19 11.27-5.38 15.06-10.08a20.636 20.636 0 0 0 4.13-7.48l10.1-37.75a12.005 12.005 0 0 1 8.65-8.77 11.61 11.61 0 0 1 3-.42h-13.57z"/><path id="W" d="M1.008 11.07l-.08.14a8.62 8.62 0 0 0 7.74 12.51h24.43a30.741 30.741 0 0 0 6.68-10 20.641 20.641 0 0 0 1.5-6.48L10.718 0a33.84 33.84 0 0 0-9.71 11.07z"/><path id="X" d="M36 0H5L.24 16.32A6 6 0 0 0 6 24h23.51a3 3 0 0 0 2.94-2.59L36 0z"/><path id="Y" d="M13.6 20H6.79a3.77 3.77 0 0 1-3.5-3L0 0h12.65l3.29 17a2.37 2.37 0 0 1-2.34 3z"/><path id="Z" d="M8 0h12a8 8 0 0 1 8 8v11a14 14 0 0 1-28 0V8a8 8 0 0 1 8-8z"/><path id="aa" d="M40.728 29.664l-2.56-11.84A22.23 22.23 0 0 0 12.108.414l-5.33 1.06-.86.2a15.12 15.12 0 0 0-5.86 3.46c-.65.59 4.37 10.18 4.37 10.18a18.49 18.49 0 0 0 14.56 10.79c.33.06.665.1 1 .12h7.66l-4.81 22.95c3-.203 5.899-1.17 8.42-2.81l2.41-1.68a16.539 16.539 0 0 0 7.16-12.22c.094-.933.06-1.875-.1-2.8z"/><path id="ab" d="M15.35 14.33c.33.06.665.1 1 .12h6.16V11.9h-3.66c-.29 0-.63-.07-1-.11A18.51 18.51 0 0 1 3.26 1l-.48-1A13.94 13.94 0 0 0 0 2l.76 1.56a18.49 18.49 0 0 0 14.59 10.77z"/><path id="ac" d="M8.5 17a8.5 8.5 0 1 0 0-17 8.5 8.5 0 0 0 0 17z"/><path id="ad" d="M.497 0a.51.51 0 0 0-.42.78 5 5 0 0 0 8.3 0 .51.51 0 0 0-.42-.78H.497z"/><path id="ae" d="M4 8a4 4 0 1 0 0-8 4 4 0 0 0 0 8z"/><path id="af" d="M2 4a2 2 0 1 0 0-4 2 2 0 0 0 0 4z"/><path id="ag" d="M1 0a1 1 0 0 0-1 1v2a1 1 0 0 0 2 0V1a1 1 0 0 0-1-1z"/><path id="ah" d="M1 0a1 1 0 0 0-1 1v2h2V1a1 1 0 0 0-1-1z"/><path id="ai" d="M3.911 15.62l.08-.14a38.4 38.4 0 0 1 8.63-10.35 15.94 15.94 0 0 1 5.86-3.46l.86-.2 5.33-1.06a21.38 21.38 0 0 1 2.84-.35 21.81 21.81 0 0 0-5.84.35l-5.33 1.06-.86.2a15.94 15.94 0 0 0-5.86 3.46 38.4 38.4 0 0 0-8.63 10.39l-.08.14a8.61 8.61 0 0 0 6.64 12.4v-1a8.56 8.56 0 0 1-3.64-11.44z"/><path id="aj" d="M5 0H1a1 1 0 0 0-1 1v2a1 1 0 0 0 1 1h4a1 1 0 0 0 1-1V1a1 1 0 0 0-1-1z"/><path id="ak" d="M26 0h-9a2 2 0 0 0-2 2v1a4.18 4.18 0 0 0-4 0V2a2 2 0 0 0-2-2H1a1 1 0 0 0-1 1v.46a1 1 0 0 0 .44.83 1.28 1.28 0 0 1 .56 1v1.46a3.21 3.21 0 0 0 3.21 3.21h3.58A3.21 3.21 0 0 0 11 4.75a4.18 4.18 0 0 1 4 0 3.21 3.21 0 0 0 3.21 3.21h3.58A3.21 3.21 0 0 0 25 4.75V3.53a1.25 1.25 0 0 1 .85-1.19l.47-.15a1 1 0 0 0 .68-.95V1a1 1 0 0 0-1-1zM9 5a1 1 0 0 1-1 1H4a1 1 0 0 1-1-1V3a1 1 0 0 1 1-1h4a1 1 0 0 1 1 1v2zm14 0a1 1 0 0 1-1 1h-4a1 1 0 0 1-1-1V3a1 1 0 0 1 1-1h4a1 1 0 0 1 1 1v2z"/><path id="al" d="M.5 0H1a1 1 0 0 1 1 1v.5a.5.5 0 0 1-.5.5h-1a.5.5 0 0 1-.5-.5v-1A.5.5 0 0 1 .5 0z"/><path id="am" d="M.5 0H1a1 1 0 0 1 1 1v.5a.5.5 0 0 1-.5.5h-1a.5.5 0 0 1-.5-.5v-1A.5.5 0 0 1 .5 0z"/><path id="an" d="M26 0c10.26 0 19.5 3.08 26 8H0c6.5-4.92 15.74-8 26-8z"/><path id="ao" d="M19 3.221c8.68-3.67 17.67-4.1 25-1.82l-44 18.6c3.63-6.93 10.28-13.11 19-16.78z"/><path id="ap" d="M9.26 9.26A30.9 30.9 0 0 1 30 0L0 30A30.9 30.9 0 0 1 9.26 9.26z"/><path id="aq" d="M26 0C15.74 0 6.5 3.08 0 8h52c-6.5-4.92-15.74-8-26-8z"/><path id="ar" d="M20.74 9.26A30.9 30.9 0 0 0 0 0l30 30a30.9 30.9 0 0 0-9.26-20.74z"/><path id="as" d="M25 3.221c-8.68-3.67-17.67-4.1-25-1.82l44 18.6c-3.63-6.93-10.28-13.11-19-16.78z"/><path id="at" d="M2 0a2 2 0 0 1 2 2v21H0V2a2 2 0 0 1 2-2z"/><path id="au" d="M32 40H10L0 0h42L32 40z"/><path id="av" d="M5 0L0 40h7L17 0H5z"/><path id="aw" d="M42 0H2a2 2 0 0 0-2 2v3a2 2 0 0 0 2 2h40a2 2 0 0 0 2-2V2a2 2 0 0 0-2-2z"/><path id="ax" d="M0 0l.57 2.3 36.78 4.3L39 0H0z"/><path id="ay" d="M15 0A19.59 19.59 0 0 0 0 7h30a19.59 19.59 0 0 0-15-7z"/><path id="az" d="M22.88 0H0l1.25 5h21l.63-5z"/><path id="aA" d="M.63 0L0 5h9l1.25-5H.63z"/><path id="aB" d="M35.2 0H1.04a1 1 0 0 0-1 1.28l9.2 31.28A2 2 0 0 0 11.2 34h35.5L37.12 1.44A2 2 0 0 0 35.2 0z"/><path id="aC" d="M4.227 0h-2.23a2 2 0 0 0-1.92 2.55l.57 2A2 2 0 0 0 2.567 6h2.23a2 2 0 0 0 1.92-2.55l-.57-2A2 2 0 0 0 4.227 0z"/><path id="aD" d="M45 0H0v45h45V0z"/><path id="aE" d="M34.58 1.09A2.18 2.18 0 0 0 32.81 0a2.16 2.16 0 0 0-1.77 1.08L18.72 19.36l-6-8.73a2.2 2.2 0 0 0-1.79-1.08 2.23 2.23 0 0 0-1.79 1.1L0 24v4a2 2 0 0 0 2 2h46a2 2 0 0 0 2-2v-4L34.58 1.09z"/><path id="aF" d="M45 5v40H5V5h40zM2 0a2 2 0 0 0-2 2v46a2 2 0 0 0 2 2h46a2 2 0 0 0 2-2V2a2 2 0 0 0-2-2H2z"/><path id="aG" d="M24 48c13.255 0 24-10.745 24-24S37.255 0 24 0 0 10.745 0 24s10.745 24 24 24z"/><path id="aH" d="M20 40c11.046 0 20-8.954 20-20S31.046 0 20 0 0 8.954 0 20s8.954 20 20 20z"/><path id="aI" d="M1 0h1a1 1 0 0 1 1 1v17.12H0V1a1 1 0 0 1 1-1z"/><path id="aJ" d="M4 2a2 2 0 1 0-4 0v8a2 2 0 1 0 4 0V2z"/><path id="aK" d="M2.5 5a2.5 2.5 0 1 0 0-5 2.5 2.5 0 0 0 0 5z"/><path id="aL" d="M322 0H48C21.49 0 0 4.48 0 10s21.49 10 48 10h274c26.51 0 48-4.48 48-10S348.51 0 322 0z"/><path id="aM" d="M199.17 6H9.31a8 8 0 0 1-5.65-2.34L0 0h198l2.59 2.59a1.996 1.996 0 0 1 .428 2.179A2.001 2.001 0 0 1 199.17 6z"/><path id="aN" d="M4.52 27h52.67a10.83 10.83 0 0 0 2.52-3.82 10.59 10.59 0 0 0-2.77-11.81A42.85 42.85 0 0 0 27.81 0c-3.615 0-7.216.45-10.72 1.34a43.09 43.09 0 0 0-9.72 3.81C1.32 8.42 0 13 0 20c0 2.57 1.82 5.12 4.52 7z"/><path id="aO" d="M6 3a3 3 0 1 0-6 0v3.74A13.47 13.47 0 0 0 2.52 9h3.72A5.69 5.69 0 0 1 6 7.46V3z"/><path id="aP" d="M1.037 11.05a1 1 0 0 1-.92-.55.91.91 0 0 1 .07-1l7.89-9a1.11 1.11 0 0 1 .9-.5 1 1 0 0 1 1 1v9.05a1 1 0 0 1-1 1h-7.94z"/><path id="aQ" d="M9.953 2v9h-7.9l7.75-8.84.06-.07.06-.08.03-.01zM9.923.01a2 2 0 0 0-1.66.84L.323 9.91A2 2 0 0 0 1.953 13h8a2 2 0 0 0 2-2V2a2 2 0 0 0-2-2l-.03.01z"/><path id="aR" d="M1 11a1 1 0 0 1-1-1V1a1 1 0 0 1 1-1 1 1 0 0 1 .84.43l8 9.12a.89.89 0 0 1 0 .9 1 1 0 0 1-.92.55H1z"/><path id="aS" d="M2 2.002l.06.08.06.07 7.76 8.84-7.88.01v-9zm0-2a2 2 0 0 0-2 2v9a2 2 0 0 0 2 2h8a2 2 0 0 0 1.66-3.1L3.72.842A2 2 0 0 0 2 .002z"/><path id="aT" d="M16.072 8.56c-3.82-3.53-7.3-6.37-12.22-8.33l-.6-.23a9.94 9.94 0 0 0-.91 1.85L.622 5.72a5.93 5.93 0 0 0-.6 3.15 6 6 0 0 0 6 5.32h13.36a10.69 10.69 0 0 0-3.31-5.63z"/><path id="aU" d="M2.372 5.66a9.94 9.94 0 0 1 3.18-4.46A5.74 5.74 0 0 1 9.162 0h12a5.74 5.74 0 0 1 3.6 1.2 9.94 9.94 0 0 1 3.18 4.46l1.72 3.87a5.93 5.93 0 0 1 .6 3.15 6 6 0 0 1-6 5.32H6.022a6 6 0 0 1-6-5.32 5.93 5.93 0 0 1 .6-3.15l1.75-3.87z"/><path id="aV" d="M10 2H0V0l10 2z"/><path id="aW" d="M10 0H0v2l10-2z"/><path id="aX" d="M0 2h10V0L0 2z"/><path id="aY" d="M0 0h10v2L0 0z"/><path id="aZ" d="M9.5 0h-6a3.5 3.5 0 1 0 0 7h6a3.5 3.5 0 1 0 0-7z"/><path id="ba" d="M.22 1.28l1.19 1.19a.75.75 0 0 0 1.06 0l1.19-1.19A.75.75 0 0 0 3.13 0H.75a.75.75 0 0 0-.53 1.28z"/><path id="bb" d="M3 1.5a1.5 1.5 0 1 0-3 0 1.5 1.5 0 0 0 3 0z"/><path id="bc" d="M5.5 0H0v7h5.5a3.5 3.5 0 1 0 0-7z"/><path id="bd" d="M3.5 0a3.5 3.5 0 1 0 0 7H17V0H3.5z"/><path id="be" d="M6.39 12.27a14.82 14.82 0 0 1-.3 3h4.3v-1A15 15 0 0 0 0 0a15 15 0 0 1 6.39 12.27z"/><path id="bf" d="M22.5 0h-19a3.5 3.5 0 1 0 0 7h19a3.5 3.5 0 1 0 0-7z"/><path id="bg" d="M69.59 2.59L67 0H0l3.66 3.66.36.34a8.53 8.53 0 0 1 2.24 3.44c.45 1.16 1.57 2.46 4.13 4a3.34 3.34 0 0 0 1.86.52 6 6 0 0 0 5.28-3.65 3.93 3.93 0 0 1 3.64-2.34h47a2 2 0 0 0 1.42-3.38z"/><path id="bh" d="M29.54 13a11.451 11.451 0 0 0-8.16 3.38A5.54 5.54 0 0 1 17.46 18h-.92a5.54 5.54 0 0 1-3.92-1.62l-5-5A5.54 5.54 0 0 1 6 7.46V3a3 3 0 1 0-6 0v4.46a11.45 11.45 0 0 0 3.38 8.16l5 5A11.45 11.45 0 0 0 16.54 24h.92a11.451 11.451 0 0 0 8.16-3.38A5.538 5.538 0 0 1 29.54 19H30v-6h-.46z"/><path id="bi" d="M4 0H0v6h4a3 3 0 0 0 0-6z"/><path id="bj" d="M7 4.25C7 1.36 5.43 0 3.5 0S0 1.36 0 4.25V6h7V4.25z"/><path id="bk" d="M7 0H0v7h7V0z"/><path id="bl" d="M10 0H0v9h10V0z"/></defs></svg>