<?xml version="1.0" encoding="utf-8"?>
<!-- Generator: Adobe Illustrator 16.0.4, SVG Export Plug-In . SVG Version: 6.00 Build 0)  -->
<!DOCTYPE svg PUBLIC "-//W3C//DTD SVG 1.1//EN" "http://www.w3.org/Graphics/SVG/1.1/DTD/svg11.dtd">
<svg version="1.1"
	 id="svg2" xmlns:dc="http://purl.org/dc/elements/1.1/" xmlns:cc="http://creativecommons.org/ns#" xmlns:rdf="http://www.w3.org/1999/02/22-rdf-syntax-ns#" xmlns:svg="http://www.w3.org/2000/svg" xmlns:sodipodi="http://sodipodi.sourceforge.net/DTD/sodipodi-0.dtd" xmlns:inkscape="http://www.inkscape.org/namespaces/inkscape" sodipodi:docname="Bing 2013.svg" inkscape:version="0.48.2 r9819"
	 xmlns="http://www.w3.org/2000/svg" xmlns:xlink="http://www.w3.org/1999/xlink" x="0px" y="0px" width="54px" height="22px"
	 viewBox="97.5 36.886 54 22" enable-background="new 97.5 36.886 54 22" xml:space="preserve">
<sodipodi:namedview  inkscape:cy="22.390866" inkscape:cx="794.91438" inkscape:zoom="0.75041707" showgrid="false" bordercolor="#666666" pagecolor="#ffffff" borderopacity="1.0" id="base" inkscape:current-layer="layer1" inkscape:window-maximized="1" inkscape:window-y="-8" inkscape:window-x="-8" inkscape:window-height="1028" inkscape:window-width="1920" inkscape:pageshadow="2" inkscape:pageopacity="0.0" fit-margin-bottom="0.5" inkscape:document-units="px" fit-margin-right="0.5" fit-margin-left="0.5" fit-margin-top="0.5">
	<inkscape:grid  id="grid2996" type="xygrid" snapvisiblegridlinesonly="true" visible="true" enabled="true" empspacing="5">
		</inkscape:grid>
</sodipodi:namedview>
<g id="layer1" transform="translate(40.5,164.03255)" inkscape:groupmode="layer" inkscape:label="Layer 1">
	<path id="path2998" inkscape:connector-curvature="0" sodipodi:nodetypes="cccccccccccc" fill="#EAB221" d="M62.466-106.159
		L58-109.29v-16.489l4.493,1.376v11.086l-4.363,3.89l10.648-5.603l-2.952-1.335l-1.998-4.332l9.869,3.024v4.822L62.466-106.159z"/>
	<g id="flowRoot3000" transform="matrix(2.0428483,0,0,2.0428483,395.0588,582.03754)">
		<path id="path3009" inkscape:connector-curvature="0" sodipodi:nodetypes="cccccccccccsscssscscccss" fill="#EAB221" d="
			M-153.762-339.397h-0.016v0.592h-0.657v-6.07l0.657,0.196v2.495h0.016c0.323-0.544,0.795-0.817,1.417-0.817
			c0.526,0,0.938,0.184,1.235,0.55c0.298,0.367,0.446,0.859,0.446,1.476c0,0.686-0.167,1.235-0.501,1.647
			c-0.334,0.413-0.79,0.619-1.369,0.619C-153.075-338.709-153.484-338.938-153.762-339.397z M-153.778-341.051v0.573
			c0,0.339,0.11,0.627,0.33,0.863c0.22,0.236,0.5,0.355,0.839,0.355c0.397,0,0.709-0.152,0.935-0.457
			c0.226-0.305,0.338-0.728,0.338-1.27c0-0.456-0.105-0.814-0.316-1.073c-0.211-0.259-0.496-0.388-0.857-0.388
			c-0.382,0-0.689,0.133-0.921,0.398C-153.662-341.784-153.778-341.451-153.778-341.051L-153.778-341.051z"/>
		<path id="path3011" inkscape:connector-curvature="0" sodipodi:nodetypes="ccccccsccccccc" fill="#EAB221" d="M-149.468-343.841
			c-0.118,0-0.217-0.04-0.3-0.12s-0.124-0.181-0.124-0.304c0-0.123,0.042-0.225,0.124-0.306c0.083-0.082,0.183-0.122,0.3-0.122
			c0.12,0,0.222,0.041,0.306,0.122c0.084,0.081,0.126,0.183,0.126,0.306c0,0.118-0.042,0.217-0.126,0.3
			C-149.246-343.882-149.348-343.841-149.468-343.841z M-149.148-338.805h-0.657v-4.1h0.657V-338.805z"/>
		<path id="path3013" inkscape:connector-curvature="0" fill="#EAB221" d="M-144.653-338.805h-0.656v-2.338
			c0-0.87-0.318-1.305-0.953-1.305c-0.328,0-0.599,0.123-0.815,0.37s-0.322,0.559-0.322,0.935v2.338h-0.657v-4.1h0.657v0.68h0.016
			c0.31-0.518,0.758-0.777,1.346-0.777c0.448,0,0.791,0.145,1.029,0.435c0.238,0.289,0.356,0.708,0.356,1.255V-338.805z"/>
		<path id="path3015" inkscape:connector-curvature="0" sodipodi:nodetypes="ssccssccsssscccccscccccc" fill="#EAB221" d="
			M-140.007-339.133c0,1.506-0.72,2.258-2.162,2.258c-0.507,0-0.95-0.096-1.329-0.288l0.179-0.588
			c0.402,0.198,0.772,0.309,1.14,0.309c0.976,0,1.515-0.53,1.515-1.603v-0.448h-0.016c-0.312,0.523-0.782,0.784-1.409,0.784
			c-0.51,0-0.92-0.182-1.231-0.546c-0.311-0.364-0.48-0.86-0.48-1.474c0-0.697,0.181-1.244,0.516-1.655
			c0.335-0.411,0.803-0.628,1.385-0.628c0.552,0,0.953,0.2,1.219,0.643h0.016v-0.535h0.656V-339.133z M-140.664-340.659v-0.604
			c0-0.646-0.527-1.185-1.154-1.185c-0.95,0-1.29,0.865-1.297,1.681c0,0.78,0.396,1.475,1.205,1.475
			C-141.099-339.291-140.672-339.931-140.664-340.659z"/>
	</g>
</g>
</svg>
