<?xml version="1.0" encoding="utf-8"?>
<!-- Generator: Adobe Illustrator 19.1.0, SVG Export Plug-In . SVG Version: 6.00 Build 0)  -->
<svg version="1.1" id="Layer_1" xmlns="http://www.w3.org/2000/svg" xmlns:xlink="http://www.w3.org/1999/xlink" x="0px" y="0px"
	 width="56px" height="14px" viewBox="0 0 56 14" style="enable-background:new 0 0 56 14;" xml:space="preserve">
<style type="text/css">
	.st0{fill:#888888;}
</style>
<g>
	<path class="st0" d="M54.8,0.6L54.8,0.6L54.8,0.6c0,0-0.1,0-0.2,0c-0.4,0-0.8,0.2-0.8,0.8c-0.2,3-0.5,6-0.9,8.9l0,0c0,0,0,0,0,0
		c0,0,0,0,0,0l0,0c0.2,0,0.4,0,0.6,0.1l0,0c0.5-2.9,1.6-7.3,1.8-8.5c0-0.2,0.1-0.4,0.1-0.5C55.5,0.9,55.2,0.7,54.8,0.6z"/>
	<path class="st0" d="M25.8,1.8c0.1,1.6,0.1,3.1,0.1,4.7c-1.9,0-3.7,0-5.6,0l0,0c0-1.6,0-3.1,0.1-4.7c-0.5,0.1-1.1,0.1-1.7,0
		c0.1,3.3,0.1,6.7,0,10c0.5-0.1,1.1-0.1,1.7,0l0,0l0,0c-0.1-1.6-0.1-3.1-0.1-4.7l0,0c1.9,0,3.7,0,5.6,0c0,1.6,0,3.1-0.1,4.7l0,0l0,0
		c0.6-0.1,1.1-0.1,1.7,0c-0.1-3.3-0.1-6.7,0-10C26.9,1.9,26.3,1.9,25.8,1.8z"/>
	<path class="st0" d="M13.9,1.8L13.9,1.8L13.9,1.8c-0.4,0.1-0.8,0.1-1.2,0l0,0c-1.3,3.4-2.9,7.2-4.3,10l0,0l0,0l0,0c0,0,0,0,0,0l0,0
		l0,0c0.6-0.2,1.2-0.1,1.6,0c0,0,0,0,0,0l0,0c0.4-0.9,0.8-1.9,1.2-2.9l0,0c1.4,0,2.7,0,4.1,0l0,0c0.4,1,0.8,2,1.2,2.9l0,0
		c0.6-0.2,1.2-0.1,1.7,0l0,0C17.1,9.9,15.1,5,13.9,1.8z M13.3,3.5c0.6,1.5,1.2,3.1,1.8,4.7l0,0c-1.2,0-2.4,0-3.5,0l0,0
		C12.2,6.3,12.9,4.5,13.3,3.5z"/>
	<path class="st0" d="M10.8,0.4C10.8,0.4,10.8,0.4,10.8,0.4L10.8,0.4c-0.6,0.1-1.1,0.1-1.7,0C8.7,1.3,6.9,4.2,5.8,6
		C4.7,4.1,3.3,2,2.5,0.4c-0.7,0.1-1,0.2-1.7,0c1.4,2.1,3.6,6,4.3,7.3L5,13.1c0,0,0.5-0.1,0.8-0.1c0.4,0,0.8,0.1,0.8,0.1L6.5,7.7
		C7.9,5.3,10.2,1.3,10.8,0.4z"/>
	<path class="st0" d="M33.3,1.6c-3.5,0-5.4,2.2-5.4,5.2c0,3.2,2,5.1,5.4,5.1c3.6,0,5.4-2.2,5.4-5.1C38.7,3.6,36.6,1.6,33.3,1.6z
		 M33.3,11.4c-2.4,0-3.7-1.7-3.7-4.5c0-3.2,1.7-4.5,3.6-4.6c0,0,0.1,0,0.1,0c2.2,0,3.8,1.5,3.8,4.6C37.1,9.9,35.5,11.4,33.3,11.4z"
		/>
	<path class="st0" d="M45.5,1c-3.5,0-6.2,2-6.2,5.7c0,3.1,1.8,5.8,6.2,5.8c3.8,0,6.2-2.1,6.2-5.7C51.8,3.4,49.5,1,45.5,1z M41,6.7
		c0-3.9,2.4-5.1,4.6-5.1c2.6,0,4.6,1.6,4.6,5.2c0,3.9-2.4,5.1-4.6,5.1C43.1,11.9,41,10.5,41,6.7z"/>
	<path class="st0" d="M52.8,11.5c-0.5,0-0.8,0.4-0.8,0.8c0,0.5,0.4,0.8,0.9,0.8c0.4,0,0.8-0.2,0.8-0.8
		C53.7,11.8,53.3,11.5,52.8,11.5z"/>
</g>
</svg>
