<svg width="2010" height="880" viewBox="0 0 2010 880" xmlns="http://www.w3.org/2000/svg" xmlns:xlink="http://www.w3.org/1999/xlink"><defs><path id="a" d="M0 0h2260v880H0z"/></defs><g transform="translate(-130)" fill="none" fill-rule="evenodd"><mask id="b" fill="#fff"><use xlink:href="#a"/></mask><g fill-rule="nonzero" mask="url(#b)"><path d="M-14.777 641.328C-26.084 629.185-33 612.9-33 595c0-37.555 30.445-68 68-68 26.386 0 49.261 15.028 60.535 36.992a32.765 32.765 0 0 1 3.217-1.529c9.076-3.676 19.185-3.216 27.687 1.15a54.376 54.376 0 0 1 23.551-18.842 54.062 54.062 0 0 1 42.508.46c2.987.114 5.974.23 8.846.574 13.327-12.293 32.512-15.51 49.17-8.501 14.591 6.088 24.701 19.185 29.756 34.235 11.833 0 22.403 5.86 28.836 14.706 19.416-15.97 46.184-20.795 70.425-11.834 6.203-3.101 12.752-5.17 23.206-6.893 8.846-11.948 24.126-17.347 38.487-13.326 14.36 4.02 24.815 16.543 26.079 31.363 9.765-4.825 20.794-6.318 31.363-4.136 13.557 2.643 25.045 10.914 32.168 22.288 7.697-2.183 15.854-3.332 24.24-3.332 40.44 0 74.561 26.883 85.705 63.647 8.961 2.757 17.233 6.893 24.815 12.063 3.217-5.4 9.076-8.961 15.74-8.961 9.305 0 16.888 6.893 18.151 15.854 8.732-2.758 18.152-4.366 27.802-4.366 4.481 0 8.962.345 13.327 1.034 11.374-28.032 36.304-49.056 66.748-54.685 9.88-19.3 29.985-32.513 53.192-32.513 24.585 0 45.724 14.82 54.915 36.074 17.233.804 31.708 11.948 41.703 27.113 10.455 0 19.76 5.285 25.39 13.327 4.595-1.609 9.42-2.528 16.428-2.413 6.434-17.003 22.748-29.18 42.048-29.18 20.91 0 38.487 14.36 43.427 33.776 7.008 1.723 13.212 5.17 18.841 9.65 14.476-31.823 46.414-53.881 83.636-53.881 40.9 0 75.48 26.653 90.645 64.565 4.94-8.96 13.097-16.199 23.551-19.76 13.901-4.71 28.492-1.838 39.29 6.319 19.187-28.836 51.929-47.103 88.118-47.103 4.94 0 9.995.344 14.935 1.034 4.595-2.757 10.454-5.744 16.198-6.893 3.792-.69 7.698-.805 11.489-.23 15.74-22.977 42.163-38.027 72.033-38.027 14.245 0 27.687 3.332 39.52 9.42 5.515-4.48 12.523-7.122 20.22-7.122 2.298 0 4.595.23 6.778.689 8.617-8.731 19.76-14.82 32.398-17.003 24.355-4.25 48.826 6.778 61.693 27.802 3.102 1.034 6.089 2.528 8.846 4.366 4.825-8.617 13.327-14.59 22.977-16.429 9.65-1.838 19.645.69 27.343 6.893 5.4-.574 10.914 0 16.084 1.839-1.034-16.889 9.765-32.168 26.079-36.764a35.652 35.652 0 0 1 41.358 17.922c7.123-8.156 16.658-13.786 27.343-15.854 21.483-4.25 43.197 6.204 53.306 25.62a38.62 38.62 0 0 1 8.617 3.101 32.771 32.771 0 0 1 18.84-20.564c9.077-3.676 19.187-3.217 27.688 1.149a54.376 54.376 0 0 1 23.552-18.841 54.062 54.062 0 0 1 42.507.46c2.987.114 5.974.23 8.846.574 13.327-12.293 32.513-15.51 49.171-8.502a45.616 45.616 0 0 1 19.99 16.199c6.089-3.791 13.442-6.089 21.254-6.089 17.577 0 32.512 11.259 38.027 26.998 15.739-5.744 33.316-6.089 49.745 0 6.204-3.102 12.752-5.17 23.207-6.893 8.846-11.948 24.125-17.348 38.486-13.327 14.36 4.021 24.815 16.544 26.079 31.364 3.447-1.723 7.123-2.987 9.995-3.791v346.033L-178 923l163.223-281.672z" fill="#E8F2FC" opacity=".75"/><path fill="#D2E6F5" d="M933 808h29v47h-29zM1029 769h26v42h-26zM1584.4 816h26v42h-26zM1851 692h-48l-60 60v127h168V752z"/><path fill="#D2E6F5" d="M1770 1037h-73V668h73zM1357.965 776.004l40.022-40.021 40.021 40.021-40.021 40.022zM1535 757l-40 40-5 60 85.5 9.5-.5-69.5z"/><path fill="#D2E6F5" d="M1696 736l-51 51 1 99 90-32zM1990 855h-99V666h99z"/><path d="M2203 830v-28h-16v-48l-24-24-24 24v40h-16v-32h-24v80h-24v-24h-24v-24h-24v48h-514V714h-10v-24h-12v-40h-4v40h-40v24h-10v60h-92v-44h-54v64h-24v-10h-16v58h-24v-64h-24v-32l-12-12-12 12v96h-112v-40h-48v-16h-14v-40h-4v28h-14v12h-8v62h-34V698h-44v68h-44v-27h5v-8H716v8h5v29h-22v34h-36v-8h-42v-8h-36v8h-55v-50l-34-24-34 24v50h-11v-40h-16v68h-12v20h-20v-40h-16v-32h-24v72h-24l-16-112h-48v174h2000v-74h-72z" fill="#D2E6F5"/><path d="M240 830v-28h-16v-48l-24-24-24 24v40h-16v-32h-24v80h-24v-24H88v-24H64v48h-514V714h-10v-24h-12v-40h-4v40h-40v24h-10v60h-92v-44h-54v64h-24v-10h-16v58h-24v-64h-24v-32l-12-12-12 12v96h-112v-40h-48v-16h-14v-40h-4v28h-14v12h-8v62h-34V698h-44v68h-44v-27h5v-8h-146v8h5v29h-22v34h-36v-8h-42v-8h-36v8h-55v-50l-34-24-34 24v50h-11v-40h-16v68h-12v20h-20v-40h-16v-32h-24v72h-24l-16-112h-48v174H312v-74h-72z" fill="#D2E6F5"/><path d="M26.4 157.5l42.7-3.1c6.6-22.5 27.4-38.9 52-38.9 16.6 0 31.2 7.3 41.2 18.9 5.2-3.6 11.6-5.7 18.3-5.7 7.3 0 13.9 2.3 19.4 6.4C209 106 235.9 85 267.8 85c30.8 0 56.8 19.4 66.6 46.7 4.6-2 11.9-3.2 17.3-3.2 16.8 0 31.5 11.1 36.8 26.3l35.2 2.8c8.6.4 8.2 7.5-.5 7.5H27c-8.8-.1-9.1-7.2-.6-7.6zM330 319.6l38.7-2.6c7.6-16 23.8-27.1 42.7-27.1 14.3 0 27.1 6.4 35.8 16.5 4.6-3 10.1-4.9 16-4.9 5.6 0 10.8 1.7 15.2 4.4 6.1-27.9 30.9-48.9 60.7-48.9 28.8 0 53.1 19.7 60.1 46.4 1.2 4.4 1.8 9 1.9 13.6l37.6 2.6c5 .3 4.7 7.4-.3 7.4H330.1c-5 0-5.3-7.1-.1-7.4zM1769.2 237.6l23-1.4c1.8-5.3 4.7-10 8.6-13.7 6.1-5.8 14.3-9.4 23.4-9.4 7 0 13.5 2.3 19 5.9 9.1-26.2 34.1-45 63.4-45 29.1 0 53.7 18.4 63.1 44.3.6-.3 1.2-.5 1.8-.8 4.4-2.1 9.4-3.3 14.6-3.3 14.1 0 26.2 8.8 31.2 21.2l36.1 2.3c6.4.3 5.9 6.4-.5 6.4h-283.6c-6.2-.1-6.6-6.2-.1-6.5z" fill="#FFF"/><path fill="#D2E6F5" d="M561 719h76v171h-76zM1107 770h76v171h-76zM600 652l-19 19v23.9c0 3.3 2.8 6.1 6.2 6.1h25.7c3.4 0 6.2-2.7 6.2-6.1V671L600 652z"/><path fill="#D2E6F5" d="M613 722h-4l-4-24h4zM591 722h-4l4-24h4z"/><path fill="#D2E6F5" d="M591 708h18v4h-18zM749.968 736l40.022-40.022L830.012 736 789.99 776.02zM554 719h90v7h-90z"/><path fill="#D2E6F5" d="M568 706h4v17h-4zM1299 718h39v22h-39z"/><path fill="#D2E6F5" d="M1306 687h3v42h-3z"/><path fill="#D2E6F5" d="M1299 687h17v3h-17zM739 703h5v43h-5zM1712 648h5v43h-5zM1732 659h29v30h-29zM1813 669h29v30h-29z"/><g><g transform="translate(593 387)"><path d="M214.6 183.5h-15c-.8 0-1.5-.7-1.5-1.5s.7-1.5 1.5-1.5h15c.8 0 1.5.7 1.5 1.5s-.7 1.5-1.5 1.5zM203.6 3.5h-11c-.8 0-1.5-.7-1.5-1.5s.7-1.5 1.5-1.5h11c.8 0 1.5.7 1.5 1.5s-.7 1.5-1.5 1.5zM216.6 3.5h-5c-.8 0-1.5-.7-1.5-1.5s.7-1.5 1.5-1.5h5c.8 0 1.5.7 1.5 1.5s-.7 1.5-1.5 1.5z" fill="#DDEBF7"/><path fill="#9C452D" d="M33.7 108.5l-2.6 4h15v-4z"/><path d="M123.5 121.9c-.7-3.6-.1-7.5 2-10.6l63.6-95.1-.6-1.2-4.7-8.8c-1-1.9-3.6-2.1-4.8-.4l-70.4 105.4c-2.1 3.1-2.7 7-2 10.6.7 3.6 2.7 7 5.8 9 .3.2.7.4 1 .6.1 0 .2.1.3.1.3.2.7.3 1 .5.4.2.8.3 1.1.4.1 0 .2 0 .2.1.4.1.8.2 1.1.3.4.1.8.1 1.2.2h.2c.8.1 1.7.1 2.5 0h.1c.4 0 .8-.1 1.2-.2-.8-.3-1.5-.7-2.2-1.1 1.4.7 3 .8 4.5.3l.3-.1c.7-.2 1.3-.5 1.9-.8l1.6-1c-2.5-1.9-4.2-5-4.9-8.2z" fill="#544463"/><path d="M189.1 16.1l-63.6 95.1c-2.1 3.1-2.7 7-2 10.6.6 3.3 2.4 6.3 5 8.4l34.9-21.5c31.6-19.4 42.7-59.8 25.7-92.6z" fill="#230545"/><path d="M204.1 110.5l-43.8 43.8c-.1.1-.2.1-.2.2-8.6 8.9-20.4 13.8-32.6 14.8 1.4.1 2.8.2 4.2.2h9.4c13.8 0 27.4-5 37-15 .1-.1.2-.1.2-.2l43.8-43.8h-18z" fill="#CDD6C5"/><path d="M52.1 99.6v29.8c0 2.7 1.7 5.2 4.4 5.8 3.1.8 6-1 7-3.8 0 0 6.4-18.9 9.7-28.8l-21.1-3z" fill="#230545"/><path fill="#A09AA6" d="M106.1 124.5h.2z"/><path d="M90.6 94l-.5-.5-4.9 4.9c2.3 4.3 2.3 9.7-3.1 15.1l-5.5 5.5c-4.7 4.7-4.7 12.3 0 17.1l18.5 18.5v-19c0-2.5.4-4.9 1.1-7.2l3.9 2.2c.3-.4 1.7-11.7 2-12l10.8-10.8c-8.4-2.8-16-7.5-22.3-13.8z" fill="#230545"/><path d="M82.1 113.5c7.5-7.5 4.4-15.1-.4-19.5l-5-5c-3-2.8-7.3-3.8-11.3-3.1-2.9.5-5.6 1.4-8.2 2.7-2.7 1.4-5.3 3.2-7.5 5.4l-3.5 3.5v15h1.5c4.7 0 6.3.8 10.5 5L74.7 134l7.4-20.5z" fill="#97A090"/><path d="M59.1 95.5h-2c-3.9 0-7 3.1-7 7s3.1 7 7 7h2c3.9 0 7-3.1 7-7s-3.2-7-7-7z" fill="#E5E8DF"/><path d="M76.1 135.5c-.5 0-1.1 0-1.6-.2-2.6-.7-4.4-3.1-4.4-5.8V99.7c0-5.5-4.5-10-10-10h-3l-9-6.1c0-5.1 3.9-9.5 9-9.9.4 0 .9-.1 1.3-.1h22.7c7.7 0 14 6.3 14 14v3c0 4.1-.7 8.3-2 12.2-3.3 10-9.7 28.8-9.7 28.8-.8 2.3-2.9 3.9-5.3 4h-2v-.1z" fill="#9C452D"/><path d="M62.1 78.6c.4 0 .9-.1 1.3-.1h22.7c2.6 0 5 .7 7.1 1.9-2.4-4.1-6.9-6.9-12.1-6.9H58.4c-.4 0-.8 0-1.3.1-5.1.4-9 4.8-9 9.9l5.1 3.5c.7-4.5 4.3-8 8.9-8.4z" fill="#B37624"/><path d="M98.7 100.7c-.2.7-.4 1.3-.6 2-.1.2-.1.3-.2.5-1.8 5.3 1 11.2 6.4 13h.1l8.5-8.5c-5-1.7-9.8-4-14.2-7z" fill="#544463"/><path d="M49.8 119c-.2-.7-.5-1.3-1-1.9L22.5 90.8c-.7-.7-1.7-1.1-2.6-1.2-1.1-.1-2.2.3-3 1.2L1.2 106.5c-1.6 1.6-1.6 4.1 0 5.7l26.3 26.3c1.6 1.6 4.1 1.6 5.7 0l15.7-15.7c.9-1 1.2-2.5.9-3.8z" fill="#F1A031"/><path d="M49.8 119c-.2-.7-.5-1.3-1-1.9L22.5 90.8c-.7-.7-1.7-1.1-2.6-1.2l3.3 26.8 26.6 2.6z" fill="#FFC680"/><circle fill="#230545" cx="56.1" cy="102.5" r="3"/><path d="M127.4 169.3c12.3-1 24.1-5.9 32.6-14.8.1-.1.2-.1.2-.2l38.3-38.3-35 6-6.5 8.5h-52.9l-9 9v15c8.7 8.6 20.2 13.8 32.3 14.8z" fill="#CDD6C5"/><path d="M134.4 162.3c12.3-1 24.1-5.9 32.6-14.8.1-.1.2-.1.2-.2l21.8-21.8c5.1-5.1.6-13.8-6.5-12.6l-12 2.1-6.5 8.5h-52.9l-9 9v15c8.7 8.6 20.2 13.8 32.3 14.8z" fill="#E5E8DF"/><path d="M97.1 84.5c0-1.7-1.3-3-3-3h-40v8h40c1.7 0 3-1.3 3-3v-2z" fill="#230545"/><path d="M81.1 108.5c-3.9 0-7-3.1-7-7s3.1-7 7-7c3.8 0 7 3.1 7 7s-3.2 7-7 7z" fill="#B37624"/><path d="M81.1 105.5c-2.2 0-4-1.8-4-4s1.8-4 4-4 4 1.8 4 4-1.8 4-4 4z" fill="#230545"/><path d="M40.3 99.8c-1 .8-1.9 1.7-2.7 2.7-.2.3-.4.5-.6.8l-3.4 5.2H46V97.6c-2 .1-4 .9-5.7 2.2z" fill="#DE5833"/><path fill="#7F8C76" d="M190.1 110.5v13l.2.2 27.3-9.7 3.5-3.5z"/><path d="M191.1 123.5v-13h-60s-11-1-12.7-1.3c-1.9-.4-3.7-.9-5.5-1.5-.5-.2-1-.4-1.5-.5L100.6 118c-4.5 4.5-6.5 10.6-6.5 17v18l1 1.5c2.7 2.7 5.8 5.1 9 7.1v-21.2-.1c0-5.5 4.7-9.8 10.1-9.8H157c9.9 0 19.8-1.7 29.1-5l5.1-1.8-.1-.2z" fill="#97A090"/><path d="M131.7 110.5c-1 2.1-1.6 4.4-1.6 6.8 0 4.1 1.6 8.3 4.9 11.3a7.6 7.6 0 0 0 6 1.8l.4-.1c.8-.1 1.7-.3 2.5-.5l49.3-16.8c2.3-.8 4.5-1.6 6.7-2.6h-68.2v.1z" fill="#7F8C76"/><path d="M141.1 112.5c4.6 0 10.4 4.2 12.4 8.9l22 53c.7 1.7.8 3.3.2 4.1-.6.8-1.9 1-2.6 1h-19c-4.6 0-10.4-4.2-12.4-8.9l-16.5-37.7c-2-4.6-1.6-9.6 1.1-13.7s7.1-6.5 12.1-6.5h2.7v-.2zm0-5h-2.8c-14 0-23.5 14.4-17.8 27.3l16.5 37.7c2.7 6.6 10.4 12 17 12h19c6.6 0 9.8-5.4 7-12l-22-53c-2.6-6.6-10.3-12-16.9-12z" fill="#230545"/><path d="M134 147.5h57.1c0-1.6-1.3-3-3-3H131l3 3z" fill="#9C452D"/><path d="M184.6 164.5l6.4-15.9c.1-.4.2-.7.2-1.1H133.8c-1.3 0-2.5.8-3 2l-6 15h59.8z" fill="#230545"/><path d="M186.2 209.5c5.3 0 9.1-5 7.7-10.1l-.3-.9-9.1-34h-60l9.1 34 1.3 5.1c.9 3.5 4.1 5.9 7.7 5.9h43.6z" fill="#9C452D"/><path d="M150.9 199.4l-9.3-34.9h-16.8l6-15c.5-1.2 1.7-2 3-2h.2l-3-3h-.2c-1.3 0-2.5.8-3 2l-5.9 14.7c-.8 2.1-1 4.5-.4 6.7l9.5 35.7c.9 3.5 4.1 5.9 7.7 5.9h4.4c5.3 0 9.1-5 7.8-10.1z" fill="#B37624"/><path d="M138.7 206.5c-2.3 0-4.2-1.5-4.8-3.7l-9.4-35.2h14.8l8.7 32.7c.4 1.5.1 3.1-.9 4.3-1 1.2-2.4 2-4 2h-4.4v-.1z" fill="#9C452D"/><path d="M137 170.5l8.1 30.5c.2.8-.1 1.4-.3 1.7-.2.3-.7.8-1.6.8h-4.4c-.9 0-1.7-.6-1.9-1.5l-8.4-31.5h8.5zm4.6-6h-20l-.1 3.4 9.5 35.7c.9 3.5 4.1 5.9 7.7 5.9h4.4c5.3 0 9.1-5 7.7-10.1l-9.2-34.9z" fill="#B37624"/><path d="M180.6 182.5h-3c-1.4 0-2.5-1.1-2.5-2.5s1.1-2.5 2.5-2.5h3c1.4 0 2.5 1.1 2.5 2.5s-1.2 2.5-2.5 2.5zM161.6 182.5h-3c-1.4 0-2.5-1.1-2.5-2.5s1.1-2.5 2.5-2.5h3c1.4 0 2.5 1.1 2.5 2.5s-1.2 2.5-2.5 2.5z" fill="#E5E8DF"/><path d="M182.4 146.4l-11.8-11.8c-1.2-1.2-3.1-1.2-4.2 0l-19.8 19.8c-1.2 1.2-1.2 3.1 0 4.2l5.9 5.9h16l13.9-13.9c.5-.5.8-1.2.9-2 .1-.8-.2-1.6-.9-2.2z" fill="#E37151"/><path d="M168.6 164.5l13.9-13.9c.5-.5.8-1.2.9-2l-20.1 2.5-1.7 13.3h7v.1z" fill="#DE5833"/><path d="M224.1 16.5c-2.5-2.5-6.5-2.5-9 0l-86 86c-2.6 2.7-4 6.3-4 10s1.3 7.4 4 10c.3.3.6.6.9.8.1.1.2.1.2.2.3.2.6.5.9.7.3.2.7.4 1 .6.1 0 .1.1.2.1.3.2.7.4 1.1.5.4.2.8.3 1.2.4h.2c.8.2 1.6.4 2.4.5h.1c.4 0 .8.1 1.3.1-.9-.6-1.7-1.2-2.5-2-2.6-2.7-4-6.3-4-10s1.4-7.3 4-10l88-87.9z" fill="#97A090"/><path d="M227.1 26.5c-.2-.9-.5-1.9-.8-2.8l-2.2-7.2-28 28-60 60c-2.6 2.7-4 6.3-4 10s1.3 7.4 4 10c1.3 1.3 3.1 1.9 4.9 1.6h.3c.7-.1 1.4-.2 2-.4l40.1-14.9c27.3-10.1 44.7-35.4 46-62.9.2-3.2-.1-6.5-.5-9.7l-1.8-11.7z" fill="#E5E8DF"/><path d="M144.1 114.5c0-3.7 1.4-7.3 4-10l60-60 18.8-18.8c-.2-.7-.4-1.4-.6-2l-2.2-7.2-28 28-60 60c-2.6 2.7-4 6.3-4 10s1.3 7.4 4 10c1.3 1.3 3.1 1.9 4.9 1.6h.3c.7-.1 1.4-.2 2-.4l4.4-1.6c-2.4-2.6-3.6-6.1-3.6-9.6z" fill="#CDD6C5"/><g fill="#CDD6C5"><path d="M205.3 67.4c2-3 3.7-6.2 4.8-10l-.4-.4-3.8 3.6-3.7 3.7-7.5 7.3-7.3 7.5-3.7 3.7-3.6 3.8.4.4c3.8-1.1 7-2.8 10-4.8s5.6-4.2 8.1-6.7c2.5-2.4 4.7-5.1 6.7-8.1zM209.2 77.4l-2.5 2.4-5 4.9-4.9 5-2.4 2.5-2.4 2.5.3.3c2.7-.6 4.8-1.7 6.9-3 2-1.3 3.8-2.8 5.5-4.4 1.6-1.6 3.1-3.5 4.4-5.5 1.3-2 2.4-4.2 3-6.9l-.3-.3-2.6 2.5z"/></g><g><path d="M258 97.5l-12.3 4.1c-17.6 5.9-36 8.9-54.6 8.9l14 14 14.5 14.5 29.9-29.9c3.4-3.4 6.2-7.3 8.5-11.6z" fill="#97A090"/><path d="M271.1 93.2L258 97.6c-2.2 4.2-5.1 8.2-8.5 11.6L219.6 139l2.8 2.8c2.1 2.1 4.5 3.5 7.1 4.4l28.5-28.5c6.7-6.8 11.2-15.3 13.1-24.5z" fill="#544463"/></g><path d="M262.7 118.5l1.8-1.2c8.9-6 14.4-15.9 14.5-26.6v-.2l-10 3.3c-2.1 8.4-6.5 16.1-12.7 22.3l-29.1 29.1c6.7 3.2 14.9 2.1 20.5-3.5l17.1-17.1c.6-.6 1.3-1.3 1.8-2l-3.9-4.1z" fill="#230545"/><path d="M270.6 39.5h-25c-.8 0-1.5-.7-1.5-1.5s.7-1.5 1.5-1.5h25c.8 0 1.5.7 1.5 1.5s-.7 1.5-1.5 1.5zM236.6 193.5h-25c-.8 0-1.5-.7-1.5-1.5s.7-1.5 1.5-1.5h25c.8 0 1.5.7 1.5 1.5s-.7 1.5-1.5 1.5zM115.6 58.5h-25c-.8 0-1.5-.7-1.5-1.5s.7-1.5 1.5-1.5h25c.8 0 1.5.7 1.5 1.5s-.7 1.5-1.5 1.5zM89.6 65.5h-8c-.8 0-1.5-.7-1.5-1.5s.7-1.5 1.5-1.5h8c.8 0 1.5.7 1.5 1.5s-.7 1.5-1.5 1.5zM283.6 39.5h-5c-.8 0-1.5-.7-1.5-1.5s.7-1.5 1.5-1.5h5c.8 0 1.5.7 1.5 1.5s-.7 1.5-1.5 1.5zM301.6 102.5h-11c-.8 0-1.5-.7-1.5-1.5s.7-1.5 1.5-1.5h11c.8 0 1.5.7 1.5 1.5s-.7 1.5-1.5 1.5zM259.6 153.5h-7c-.8 0-1.5-.7-1.5-1.5s.7-1.5 1.5-1.5h7c.8 0 1.5.7 1.5 1.5s-.7 1.5-1.5 1.5zM111.6 89.5h-7c-.8 0-1.5-.7-1.5-1.5s.7-1.5 1.5-1.5h7c.8 0 1.5.7 1.5 1.5s-.7 1.5-1.5 1.5zM60.6 155.5h-7c-.8 0-1.5-.7-1.5-1.5s.7-1.5 1.5-1.5h7c.8 0 1.5.7 1.5 1.5s-.7 1.5-1.5 1.5zM53.6 147.5h-11c-.8 0-1.5-.7-1.5-1.5s.7-1.5 1.5-1.5h11c.8 0 1.5.7 1.5 1.5s-.7 1.5-1.5 1.5zM289.6 113.5h-3c-.8 0-1.5-.7-1.5-1.5s.7-1.5 1.5-1.5h3c.8 0 1.5.7 1.5 1.5s-.7 1.5-1.5 1.5z" fill="#DDEBF7"/><g><path d="M56.6 79.5h-6c-2.6 0-4.8 1.7-5.6 4h1.6c.9 0 1.7.5 2 1.3.4 1.4-.6 2.7-1.9 2.7h-1.6c.8 2.3 3 4 5.6 4h5.8c2.8 0 5.4-1.9 6-4.6.8-3.9-2.2-7.4-5.9-7.4z" fill="#230545"/><path d="M46.5 83.5h-1.6c-.2.6-.4 1.3-.4 2s.1 1.4.4 2h1.6c1.3 0 2.3-1.3 1.9-2.7-.2-.8-1-1.3-1.9-1.3z" fill="#FFF"/></g><path d="M57.1 87.5h-2c-1.1 0-2-.9-2-2s.9-2 2-2h2c1.1 0 2 .9 2 2s-.9 2-2 2z" fill="#FFF"/><g fill="#7F8C76"><path d="M218.3 117.5l-1.8 1.8c-1 1-2.5 1-3.5 0l5.3-5.3c1 1 1 2.5 0 3.5zM115.3 116.5l-1.8 1.8c-1 1-2.5 1-3.5 0l5.3-5.3c1 1 1 2.5 0 3.5zM107.3 124.5l-2.8 1.8c-1 1-2.5 1-3.5 0l5.3-5.3c1 1 2 2.5 1 3.5zM226.3 124.5l-1.8 1.8c-1 1-2.5 1-3.5 0l5.3-5.3c1 1 1 2.5 0 3.5zM234.3 114.5l-1.8 1.8c-1 1-2.5 1-3.5 0l5.3-5.3c1 1 1 2.5 0 3.5z"/></g></g><path d="M1322.7 431.6l-18.3 18.3c-1.6 1.6-4.1 1.6-5.7 0l-30.3-30.3c-1.6-1.6-1.6-4.1 0-5.7l18.3-18.3c.8-.8 1.9-1.2 3-1.2 1 0 1.9.4 2.6 1.2l30.3 30.3c.7.7 1.1 1.7 1.2 2.6.1 1.1-.2 2.2-1.1 3.1z" fill="#94A389"/><path d="M1293.6 424.7l-3.8-30.3c1 0 1.9.4 2.6 1.2l30.3 30.3c.7.7 1.1 1.7 1.2 2.6l-30.3-3.8z" fill="#7F8C76"/><path d="M1324.6 413.2h-5c-.8 0-1.5-.7-1.5-1.5s.7-1.5 1.5-1.5h5c.8 0 1.5.7 1.5 1.5 0 .9-.7 1.5-1.5 1.5zM1348.6 404.2h-31c-.8 0-1.5-.7-1.5-1.5s.7-1.5 1.5-1.5h31c.8 0 1.5.7 1.5 1.5 0 .9-.7 1.5-1.5 1.5z" fill="#DDEBF7"/><path d="M1392.6 480.4c-.8 2 .1 4.4 2.2 5.2l55.4 23c2 .8 4.4-.1 5.2-2.2l13-31.4c.8-2-.1-4.4-2.2-5.2l-55.4-23c-2-.8-4.4.1-5.2 2.2l-13 31.4z" fill="#FFB652"/><path d="M1456.6 484.2c-.3 0-.6-.1-1-.2l-3.7-1.5c-1.3-.5-1.9-2-1.4-3.3l2.3-5.5c.4-.9 1.3-1.5 2.3-1.5.3 0 .7.1 1 .2l3.7 1.5c.6.3 1.1.7 1.4 1.4.3.6.3 1.3 0 1.9l-2.3 5.5c-.4.9-1.3 1.5-2.3 1.5z" fill="#DE5833"/><path d="M1455.2 473.6c.1 0 .3 0 .4.1l3.7 1.5c.5.2.8.8.5 1.3l-2.3 5.5c-.2.4-.5.6-.9.6-.1 0-.3 0-.4-.1l-3.7-1.5c-.5-.2-.8-.8-.5-1.3l2.3-5.5c.1-.4.5-.6.9-.6zm0-3c-1.6 0-3.1 1-3.7 2.5l-2.3 5.5c-.4 1-.4 2.1 0 3.1s1.2 1.8 2.2 2.2l3.7 1.5c.5.2 1 .3 1.5.3 1.6 0 3.1-1 3.7-2.5l2.3-5.5c.8-2-.1-4.4-2.2-5.2l-3.7-1.5c-.5-.3-1-.4-1.5-.4z" fill="#FFF"/><path d="M1420.8 459.6l-12-5c-.5-.2-.8-.8-.5-1.3l.4-.9c.2-.5.8-.8 1.3-.5l12 5c.5.2.8.8.5 1.3l-.4.9c-.2.5-.8.7-1.3.5zM1412 462.5l-5.5-2.3c-.5-.2-.8-.8-.5-1.3l.4-.9c.2-.5.8-.8 1.3-.5l5.5 2.3c.5.2.8.8.5 1.3l-.4.9c-.2.4-.8.7-1.3.5zM1435.6 491.7l-18.5-7.7c-.5-.2-.8-.8-.5-1.3l.4-.9c.2-.5.8-.8 1.3-.5l18.5 7.7c.5.2.8.8.5 1.3l-.4.9c-.2.5-.8.7-1.3.5zM1441.6 487.7l-25.9-10.7c-.5-.2-.8-.8-.5-1.3l.8-1.8c.2-.5.8-.8 1.3-.5l25.9 10.7c.5.2.8.8.5 1.3l-.8 1.8c-.2.5-.8.7-1.3.5z" fill="#CC8729"/><path d="M1516.6 477.2h-31c-.8 0-1.5-.7-1.5-1.5s.7-1.5 1.5-1.5h31c.8 0 1.5.7 1.5 1.5 0 .9-.7 1.5-1.5 1.5zM1491.6 467.2h-7c-.8 0-1.5-.7-1.5-1.5s.7-1.5 1.5-1.5h7c.8 0 1.5.7 1.5 1.5 0 .9-.7 1.5-1.5 1.5z" fill="#DDEBF7"/><g><path d="M1223.2 546.4c.5-.6 1.1-1.1 1.8-1.5l37.3-15.5c1-.4 2.1-.4 3.1-.1 1.1.4 2.1 1.2 2.6 2.4l9.2 22.2c.9 2.2-.1 4.8-2.3 5.7l-37.3 15.5c-2.2.9-4.8-.1-5.7-2.3l-9.2-22.2c-.7-1.4-.4-3 .5-4.2z" fill="#E37151"/><path d="M1223.2 546.4c.5-.6 1.1-1.1 1.8-1.5l37.3-15.5c1-.4 2.1-.4 3.1-.1l-14.5 25.4-27.7-8.3z" fill="#DE5833"/><path d="M1289.6 540.2h-7c-.8 0-1.5-.7-1.5-1.5s.7-1.5 1.5-1.5h7c.8 0 1.5.7 1.5 1.5 0 .9-.7 1.5-1.5 1.5zM1317.6 550.2h-31c-.8 0-1.5-.7-1.5-1.5s.7-1.5 1.5-1.5h31c.8 0 1.5.7 1.5 1.5 0 .9-.7 1.5-1.5 1.5z" fill="#DDEBF7"/></g><g><path d="M1176.6 476.2h-15c-.8 0-1.5-.7-1.5-1.5s.7-1.5 1.5-1.5h15c.8 0 1.5.7 1.5 1.5 0 .9-.7 1.5-1.5 1.5zM1168.6 484.2h-5c-.8 0-1.5-.7-1.5-1.5s.7-1.5 1.5-1.5h5c.8 0 1.5.7 1.5 1.5 0 .9-.7 1.5-1.5 1.5z" fill="#DDEBF7"/><path d="M1093.2 518c.8 2 3.2 3 5.2 2.2l55.4-23c2-.8 3-3.2 2.2-5.2l-13-31.4c-.8-2-3.2-3-5.2-2.2l-55.4 23c-2 .8-3 3.2-2.2 5.2l13 31.4z" fill="#FFF"/><path fill="#B37624" d="M1136.6 468.6l.7 1.8z"/><path d="M1137.6 465c-.1 0-.3 0-.4.1l-3.7 1.5c-.5.2-.8.8-.5 1.3l2.3 5.5c.2.4.5.6.9.6.1 0 .3 0 .4-.1l3.7-1.5c.5-.2.8-.8.5-1.3l-2.3-5.5c-.1-.4-.5-.6-.9-.6z" fill="#DE5833"/><path d="M1098.3 483.4l-12 5c-.5.2-1.1 0-1.3-.5l-.4-.9c-.2-.5 0-1.1.5-1.3l12-5c.5-.2 1.1 0 1.3.5l.4.9c.3.5 0 1-.5 1.3zM1094.1 491.6l-5.5 2.3c-.5.2-1.1 0-1.3-.5l-.4-.9c-.2-.5 0-1.1.5-1.3l5.5-2.3c.5-.2 1.1 0 1.3.5l.4.9c.3.5 0 1.1-.5 1.3zM1131.5 495.6l-18.5 7.7c-.5.2-1.1 0-1.3-.5l-.4-.9c-.2-.5 0-1.1.5-1.3l18.5-7.7c.5-.2 1.1 0 1.3.5l.4.9c.3.5 0 1.1-.5 1.3zM1132.9 488.5l-25.9 10.7c-.5.2-1.1 0-1.3-.5l-.8-1.8c-.2-.5 0-1.1.5-1.3l25.9-10.7c.5-.2 1.1 0 1.3.5l.8 1.8c.3.5 0 1.1-.5 1.3z" fill="#E3EAD3"/></g><g><path d="M1622.1 345.7h-15c-.8 0-1.5-.7-1.5-1.5s.7-1.5 1.5-1.5h15c.8 0 1.5.7 1.5 1.5 0 .9-.7 1.5-1.5 1.5zM1614.1 353.7h-5c-.8 0-1.5-.7-1.5-1.5s.7-1.5 1.5-1.5h5c.8 0 1.5.7 1.5 1.5 0 .9-.7 1.5-1.5 1.5z" fill="#DDEBF7"/><path d="M1538.7 387.5c.8 2 3.2 3 5.2 2.2l55.4-23c2-.8 3-3.2 2.2-5.2l-13-31.4c-.8-2-3.2-3-5.2-2.2l-55.4 23c-2 .8-3 3.2-2.2 5.2l13 31.4z" fill="#FFF"/><path d="M1582.2 338.5l.6 1.5-.6-1.5z" fill="#B37624"/><path d="M1583.1 334.5c-.1 0-.3 0-.4.1l-3.7 1.5c-.5.2-.8.8-.5 1.3l2.3 5.5c.2.4.5.6.9.6.1 0 .3 0 .4-.1l3.7-1.5c.5-.2.8-.8.5-1.3l-2.3-5.5c-.1-.4-.5-.6-.9-.6z" fill="#DE5833"/><path d="M1543.8 352.9l-12 5c-.5.2-1.1 0-1.3-.5l-.4-.9c-.2-.5 0-1.1.5-1.3l12-5c.5-.2 1.1 0 1.3.5l.4.9c.3.5 0 1-.5 1.3zM1539.6 361.1l-5.5 2.3c-.5.2-1.1 0-1.3-.5l-.4-.9c-.2-.5 0-1.1.5-1.3l5.5-2.3c.5-.2 1.1 0 1.3.5l.4.9c.3.5 0 1.1-.5 1.3zM1577 365.1l-18.5 7.7c-.5.2-1.1 0-1.3-.5l-.4-.9c-.2-.5 0-1.1.5-1.3l18.5-7.7c.5-.2 1.1 0 1.3.5l.4.9c.3.5 0 1.1-.5 1.3zM1578.4 358l-25.9 10.7c-.5.2-1.1 0-1.3-.5l-.8-1.8c-.2-.5 0-1.1.5-1.3l25.9-10.7c.5-.2 1.1 0 1.3.5l.8 1.8c.3.5 0 1.1-.5 1.3z" fill="#E3EAD3"/></g><g><path d="M976.3 407.3c.8.6 1.4 1.3 1.8 2.3l19.1 46.2c.5 1.3.5 2.6.1 3.8-.5 1.4-1.5 2.6-3 3.2l-27.5 11.4c-2.7 1.1-5.9-.2-7-2.9L940.7 425c-1.1-2.7.2-5.9 2.9-7l27.5-11.4c1.8-.7 3.7-.4 5.2.7z" fill="#60A5DA"/><path d="M976.3 407.3c.8.6 1.4 1.3 1.8 2.3l19.1 46.2c.5 1.3.5 2.6.1 3.8l-31.5-17.9 10.5-34.4z" fill="#7CB5E0"/><path d="M1009.6 427.2h-11c-.8 0-1.5-.7-1.5-1.5s.7-1.5 1.5-1.5h11c.8 0 1.5.7 1.5 1.5 0 .9-.7 1.5-1.5 1.5zM1004.6 434.2h-5c-.8 0-1.5-.7-1.5-1.5s.7-1.5 1.5-1.5h5c.8 0 1.5.7 1.5 1.5 0 .9-.7 1.5-1.5 1.5z" fill="#DDEBF7"/></g><g><path d="M1587.2 460.5c.8-.5 1.8-.8 2.8-.8h50.2c1.4 0 2.6.5 3.6 1.4 1.1 1 1.8 2.4 1.8 3.9v29.3c0 3-2.4 5.4-5.4 5.4h-50.3c-3 0-5.4-2.4-5.4-5.4V465c.1-1.9 1.1-3.5 2.7-4.5z" fill="#E37151"/><path d="M1587.2 460.5c.8-.5 1.8-.8 2.8-.8h50c1.4 0 2.6.5 3.6 1.4l-28.6 22.2-27.8-22.8z" fill="#DE5833"/><path d="M1675.6 466.2h-11c-.8 0-1.5-.7-1.5-1.5s.7-1.5 1.5-1.5h11c.8 0 1.5.7 1.5 1.5 0 .9-.7 1.5-1.5 1.5zM1670.6 473.2h-5c-.8 0-1.5-.7-1.5-1.5s.7-1.5 1.5-1.5h5c.8 0 1.5.7 1.5 1.5 0 .9-.7 1.5-1.5 1.5z" fill="#DDEBF7"/></g></g></g></g></svg>