<svg width="100" height="100" xmlns="http://www.w3.org/2000/svg"><g fill="none" fill-rule="evenodd"><path d="M85.505 29.5a5 5 0 0 0-5-5h-50a5 5 0 0 0-5 5v5h60v-5z" fill="#DE5833"/><path d="M25.505 34.5v41a5 5 0 0 0 5 5h50a5 5 0 0 0 5-5v-41h-60z" fill-opacity=".3" fill="#AAA"/><path d="M44.22 55.5H32.79a2.285 2.285 0 0 1-2.285-2.286V41.786A2.285 2.285 0 0 1 32.79 39.5h11.43a2.286 2.286 0 0 1 2.285 2.286v11.428A2.286 2.286 0 0 1 44.22 55.5" fill="#FFF"/><path d="M43.505 47.5a5 5 0 1 0-10 0 5 5 0 0 0 10 0M44.22 75.5H32.79a2.285 2.285 0 0 1-2.285-2.286V61.786A2.285 2.285 0 0 1 32.79 59.5h11.43a2.286 2.286 0 0 1 2.285 2.286v11.428A2.286 2.286 0 0 1 44.22 75.5" fill="#DE5833"/><path d="M41.505 71.5h-6a1 1 0 0 1-1-1v-6a1 1 0 0 1 1-1h6a1 1 0 0 1 1 1v6a1 1 0 0 1-1 1" fill="#FFF"/><path d="M66.505 44.5h-14a1 1 0 0 1-1-1v-2a1 1 0 0 1 1-1h14a1 1 0 0 1 1 1v2a1 1 0 0 1-1 1M60.505 51.5h-8a1 1 0 0 1-1-1v-2a1 1 0 0 1 1-1h8a1 1 0 0 1 1 1v2a1 1 0 0 1-1 1M66.505 66.5h-14a1 1 0 0 1-1-1v-2a1 1 0 0 1 1-1h14a1 1 0 0 1 1 1v2a1 1 0 0 1-1 1M60.505 73.5h-8a1 1 0 0 1-1-1v-2a1 1 0 0 1 1-1h8a1 1 0 0 1 1 1v2a1 1 0 0 1-1 1" fill-opacity=".6" fill="#AAA"/><path d="M33.505 31.5a2 2 0 1 0-.001-4.001 2 2 0 0 0 .001 4.001M39.505 31.5a2 2 0 1 0-.001-4.001 2 2 0 0 0 .001 4.001" fill="#FFF"/><path d="M74.798 49.793l-2.586-2.586a.999.999 0 0 1 0-1.414l.586-.586a.999.999 0 0 1 1.414 0l2.586 2.586a.999.999 0 0 1 0 1.414l-.586.586a.999.999 0 0 1-1.414 0" fill="#DE5833"/><path d="M76.212 49.793l4.586-4.586a.999.999 0 0 0 0-1.414l-.586-.586a.999.999 0 0 0-1.414 0l-4.586 4.586a.999.999 0 0 0 0 1.414l.586.586a.999.999 0 0 0 1.414 0M78.298 70.793l-5.586-5.586a.999.999 0 0 1 0-1.414l.586-.586a.999.999 0 0 1 1.414 0l5.586 5.586a.999.999 0 0 1 0 1.414l-.586.586a.999.999 0 0 1-1.414 0" fill="#DE5833"/><path d="M74.712 70.793l5.586-5.586a.999.999 0 0 0 0-1.414l-.586-.586a.999.999 0 0 0-1.414 0l-5.586 5.586a.999.999 0 0 0 0 1.414l.586.586a.999.999 0 0 0 1.414 0" fill="#DE5833"/><path d="M18.518 21.5l-4.013-3M16.505 28H10.5" stroke-opacity=".6" stroke="#AAA" stroke-width="3" stroke-linecap="round"/></g></svg>