<svg width="100" height="100" xmlns="http://www.w3.org/2000/svg" xmlns:xlink="http://www.w3.org/1999/xlink"><defs><path id="a" d="M0 0h14.005v3H0z"/></defs><g fill="none" fill-rule="evenodd"><path d="M50.5 22a4 4 0 0 0-4-4h-18a4 4 0 0 0-4 4v.02h26V22z" fill-opacity=".6" fill="#AAA"/><path d="M24.5 22.02V36a4 4 0 0 0 4 4h18a4 4 0 0 0 4-4V22.02h-26zM58.5 22a2 2 0 0 0-2 2v38a2 2 0 0 0 2 2h32a2 2 0 0 0 2-2V24a2 2 0 0 0-2-2h-32z" fill-opacity=".3" fill="#AAA"/><path d="M87.5 50h-26a1 1 0 0 1-1-1v-2a1 1 0 0 1 1-1h26a1 1 0 0 1 1 1v2a1 1 0 0 1-1 1M87.5 58h-26a1 1 0 0 1-1-1v-2a1 1 0 0 1 1-1h26a1 1 0 0 1 1 1v2a1 1 0 0 1-1 1M87.5 42h-26a1 1 0 0 1-1-1v-2a1 1 0 0 1 1-1h26a1 1 0 0 1 1 1v2a1 1 0 0 1-1 1M87.5 34h-14a1 1 0 0 1-1-1v-6a1 1 0 0 1 1-1h14a1 1 0 0 1 1 1v6a1 1 0 0 1-1 1M67.5 34h-6a1 1 0 0 1-1-1v-6a1 1 0 0 1 1-1h6a1 1 0 0 1 1 1v6a1 1 0 0 1-1 1" fill-opacity=".6" fill="#AAA"/><path d="M74.5 46h-44a4 4 0 0 0-4 4v28c0 1.184.524 2.236 1.341 2.969A3.973 3.973 0 0 0 30.5 82h44a3.973 3.973 0 0 0 2.659-1.031A3.977 3.977 0 0 0 78.5 78V50a4 4 0 0 0-4-4" fill="#FFB652"/><path d="M19.505 61H12.5a1.5 1.5 0 0 1 0-3h7.005a1.5 1.5 0 0 1 0 3" fill-opacity=".6" fill="#AAA"/><g transform="translate(7 52)"><mask id="b" fill="#fff"><use xlink:href="#a"/></mask><path d="M12.505 3H1.5a1.5 1.5 0 0 1 0-3h11.005a1.5 1.5 0 0 1 0 3" fill-opacity=".6" fill="#AAA" mask="url(#b)"/></g><path d="M54.938 68.124L78.501 50a4 4 0 0 0-4-4h-44a4 4 0 0 0-4 4l23.56 18.124a4.002 4.002 0 0 0 4.877 0" fill="#CC872A"/><path d="M54.938 64.124L77.16 47.031A3.973 3.973 0 0 0 74.5 46h-44a3.973 3.973 0 0 0-2.66 1.031l22.222 17.093a3.999 3.999 0 0 0 4.877 0" fill="#FFB652"/></g></svg>