<svg width="100" height="100" xmlns="http://www.w3.org/2000/svg"><g transform="translate(10 12)" fill="none" fill-rule="evenodd"><path d="M66 50V18a2 2 0 0 0-2-2H2a2 2 0 0 0-2 2v41a9 9 0 0 0 9 9h65l-8-18z" fill="#E6E6E6"/><path d="M33 24h24a1 1 0 0 1 1 1v10a1 1 0 0 1-1 1H33a1 1 0 0 1-1-1V25a1 1 0 0 1 1-1z" fill="#A696BA"/><rect fill="#A696BA" x="32" y="40" width="26" height="4" rx="1"/><path d="M7.14 48H57a1 1 0 0 1 1 1v2a1 1 0 0 1-1 1H7.14a1 1 0 0 1-1-1v-2a1 1 0 0 1 1-1zM7.14 56H57a1 1 0 0 1 1 1v2a1 1 0 0 1-1 1H7.14a1 1 0 0 1-1-1v-2a1 1 0 0 1 1-1zM18.83 33L26 40.13V25a1 1 0 0 0-1-1H7a1 1 0 0 0-1 1v15.13L13.17 33a4 4 0 0 1 5.66 0z" fill="#A696BA"/><path d="M7 44h18a1 1 0 0 0 1-1v-2.87l-7.88-7.88a3 3 0 0 0-4.24 0L6 40.13V43a1 1 0 0 0 1 1z" fill="#715A92"/><path d="M21 35.13l5 5v-9.59a1 1 0 0 0-.71.3L21 35.13zM11 35.13l-4.29-4.29a1 1 0 0 0-.71-.3v9.59l5-5zM78 28H66v8h4a3 3 0 0 1 3 3v29a7 7 0 0 0 7-7V30a2 2 0 0 0-2-2z" fill="#A696BA"/><path d="M66 36v25a7 7 0 0 0 7 7V37a1 1 0 0 0-1-1h-6z" fill="#715A92"/><path d="M38 6V0M49 8l3.36-4M27 8l-3.36-4" stroke-opacity=".6" stroke="#AAA" stroke-width="3" stroke-linecap="round"/></g></svg>