<svg width="100" height="100" xmlns="http://www.w3.org/2000/svg" xmlns:xlink="http://www.w3.org/1999/xlink"><defs><path id="a" d="M.828.657H28v13.172H.828z"/><path id="c" d="M0 .657h31.172v19.172H0z"/></defs><g fill="none" fill-rule="evenodd"><path d="M49 78h34V52H49v26zm34-30H49a4 4 0 0 0-4 4v26a4 4 0 0 0 4 4h34a4 4 0 0 0 4-4V52a4 4 0 0 0-4-4z" fill-opacity=".3" fill="#AAA"/><path d="M18 48h34V22H18v26zm34-30H18a4 4 0 0 0-4 4v26a4 4 0 0 0 4 4h34a4 4 0 0 0 4-4V22a4 4 0 0 0-4-4z" fill-opacity=".3" fill="#AAA"/><path fill="#6ACCF2" d="M27 70h48V30H27z"/><g><g transform="translate(45 54.172)"><mask id="b" fill="#fff"><use xlink:href="#a"/></mask><path d="M38.586 18.414L21.414 1.242a2 2 0 0 0-2.828 0L1.414 18.414a2 2 0 0 0 0 2.828l17.172 17.172a2 2 0 0 0 2.828 0l17.172-17.172a2 2 0 0 0 0-2.828" fill="#4495D4" mask="url(#b)"/></g><g transform="translate(29 48.172)"><mask id="d" fill="#fff"><use xlink:href="#c"/></mask><path d="M30.586 18.414L13.414 1.242a2 2 0 0 0-2.828 0L-6.586 18.414a2 2 0 0 0 0 2.828l17.172 17.172a2 2 0 0 0 2.828 0l17.172-17.172a2 2 0 0 0 0-2.828" fill="#4495D4" mask="url(#d)"/></g></g><g><path d="M29 68h44V32H29v36zm44-40H29a4 4 0 0 0-4 4v36a4 4 0 0 0 4 4h44a4 4 0 0 0 4-4V32a4 4 0 0 0-4-4z" fill="#357DB6"/><path d="M63 43a5 5 0 0 0-5-5 5 5 0 0 0-5 5 5 5 0 0 0 5 5 5 5 0 0 0 5-5" fill="#FFF"/></g></g></svg>