<svg width="100" height="100" xmlns="http://www.w3.org/2000/svg" xmlns:xlink="http://www.w3.org/1999/xlink"><defs><path id="a" d="M.894.518h21.507V9H.894z"/><path id="c" d="M.518.465H9v22.936H.518z"/></defs><g fill="none" fill-rule="evenodd"><path d="M79 84a4.987 4.987 0 0 1-3.536-1.464l-28-28a5.002 5.002 0 0 1 0-7.072 5.002 5.002 0 0 1 7.072 0l28 28A5.002 5.002 0 0 1 79 84" fill="#6FBF5C"/><path d="M74 50c0-13.255-10.745-24-24-24S26 36.745 26 50s10.745 24 24 24 24-10.745 24-24" fill="#9BD96F"/><path d="M68 50c0-9.941-8.059-18-18-18s-18 8.059-18 18 8.059 18 18 18 18-8.059 18-18" fill="#6FBF5C"/><path d="M64 50c0-7.732-6.268-14-14-14s-14 6.268-14 14 6.268 14 14 14 14-6.268 14-14" fill="#FFF"/><path d="M24 28c-2.206 0-4-1.794-4-4s1.794-4 4-4 4 1.794 4 4-1.794 4-4 4M42 88c-2.206 0-4-1.794-4-4s1.794-4 4-4 4 1.794 4 4-1.794 4-4 4M84 44c-2.206 0-4-1.794-4-4s1.794-4 4-4 4 1.794 4 4-1.794 4-4 4" fill-opacity=".6" fill="#AAA"/><path d="M35.508 82.331c.141-.846-.265-1.7-1.027-2.093C23.518 74.59 16.001 63.16 16.001 50a33.783 33.783 0 0 1 4.966-17.668 1.995 1.995 0 0 0-.616-2.712 2.017 2.017 0 0 0-2.825.646A37.807 37.807 0 0 0 12 50c0 14.725 8.376 27.491 20.623 33.8 1.202.62 2.663-.135 2.885-1.469" fill-opacity=".3" fill="#AAA"/><g transform="translate(47 79)"><mask id="b" fill="#fff"><use xlink:href="#a"/></mask><path d="M.897 6.906A1.986 1.986 0 0 0 2.876 9L3 9c6.679 0 12.951-1.73 18.403-4.758 1.137-.63 1.338-2.187.419-3.106l-.05-.049c-.63-.632-1.598-.74-2.378-.309A33.79 33.79 0 0 1 3 5h-.091A2.015 2.015 0 0 0 .897 6.906" fill-opacity=".3" fill="#AAA" mask="url(#b)"/></g><g transform="translate(79 46)"><mask id="d" fill="#fff"><use xlink:href="#c"/></mask><path d="M6.39.56a1.964 1.964 0 0 0-1.425 1.985A33.784 33.784 0 0 1 .778 20.393c-.432.782-.323 1.75.308 2.38l.05.05c.92.918 2.476.716 3.107-.42a37.793 37.793 0 0 0 4.72-20.08C8.904 1.063 7.67.197 6.46.54l-.07.02z" fill-opacity=".3" fill="#AAA" mask="url(#d)"/></g><path d="M29.622 20.355a1.992 1.992 0 0 0 2.707.615A33.773 33.773 0 0 1 50 16c12.498 0 23.437 6.783 29.345 16.857.461.787 1.421 1.132 2.293.864 1.23-.378 1.803-1.809 1.151-2.919C76.192 19.555 63.981 12 50 12a37.81 37.81 0 0 0-19.738 5.528 2.014 2.014 0 0 0-.644 2.82l.004.007z" fill-opacity=".3" fill="#AAA"/><path d="M44 47v-2a6 6 0 0 1 12 0v2a2 2 0 0 1 2 2v8a2 2 0 0 1-2 2H44a2 2 0 0 1-2-2v-8a2 2 0 0 1 2-2zm3 0h6v-2a3 3 0 1 0-6 0v2z" fill-opacity=".6" fill="#AAA"/></g></svg>