<svg width="100" height="100" xmlns="http://www.w3.org/2000/svg"><g fill="none" fill-rule="evenodd"><path d="M24.058 75.064L18.505 80l1.674-7.811A10.957 10.957 0 0 1 17.505 65c0-6.075 4.925-11 11-11h12c6.075 0 11 4.925 11 11s-4.925 11-11 11h-12c-1.583 0-3.087-.334-4.447-.936z" fill-opacity=".3" fill="#AAA"/><path d="M41.505 63a2 2 0 1 0 .001 4.001A2 2 0 0 0 41.505 63M34.505 63a2 2 0 1 0 .001 4.001A2 2 0 0 0 34.505 63M27.505 63a2 2 0 1 0 .001 4.001A2 2 0 0 0 27.505 63" fill-opacity=".6" fill="#AAA"/><path d="M62 62H52c-11.598 0-21-9.402-21-21s9.402-21 21-21h10c11.598 0 21 9.402 21 21s-9.402 21-21 21" fill="#A696BA"/><path d="M57 53.84C50.633 51.113 47 46.105 47 40v-5.655c2.143-.638 3.842-2.273 4.519-4.345h10.962c.677 2.072 2.375 3.707 4.519 4.345V40c0 6.105-3.633 11.112-10 13.84" fill="#FFF"/><path d="M64.164 28H49.836c0 2.56-2.166 4.634-4.836 4.634V40c0 7.502 4.746 13.179 12 16 7.254-2.821 12-8.498 12-16v-7.366c-2.671 0-4.836-2.074-4.836-4.634m-2.993 4A8.804 8.804 0 0 0 65 35.698V40c0 3.012-1.081 8.358-8 11.648-6.919-3.29-8-8.636-8-11.648v-4.302A8.81 8.81 0 0 0 52.829 32h8.342" fill="#715A92"/><path fill="#A696BA" d="M66.505 54l15 12-5-18z"/><path d="M26.518 28l-4.013-3M24.505 36.5H18.5" stroke-opacity=".6" stroke="#AAA" stroke-width="3" stroke-linecap="round"/></g></svg>