<svg width="100" height="100" xmlns="http://www.w3.org/2000/svg" xmlns:xlink="http://www.w3.org/1999/xlink"><defs><path id="a" d="M0 52h76V0H0z"/></defs><g transform="translate(12 24)" fill="none" fill-rule="evenodd"><path d="M72 6H47c-1.637 0-3.029 1.311-3 2.947A3.001 3.001 0 0 1 41 12h-6a2.997 2.997 0 0 1-3-2.99C32.001 7.349 31.66 6 30 6H4a4 4 0 0 0-4 4v40h76V10a4 4 0 0 0-4-4" fill="#4495D4"/><path fill="silver" d="M68 33H8l-2 7h64z"/><mask id="b" fill="#fff"><use xlink:href="#a"/></mask><path fill="#E6E6E6" mask="url(#b)" d="M44 33h22V0H44zM32 0H10v33h22a6 6 0 0 1 6 6V6a6 6 0 0 0-6-6"/><path d="M25 12H15a1 1 0 0 1-1-1V5a1 1 0 0 1 1-1h10a1 1 0 0 1 1 1v6a1 1 0 0 1-1 1" fill="#6ACCF2" mask="url(#b)"/><path d="M61 6H49a1 1 0 0 0-1 1v4a1 1 0 0 0 1 1h12a1 1 0 0 0 1-1V7a1 1 0 0 0-1-1M61 16H49a1 1 0 0 0-1 1v2a1 1 0 0 0 1 1h12a1 1 0 0 0 1-1v-2a1 1 0 0 0-1-1M57 24h-8a1 1 0 0 0-1 1v2a1 1 0 0 0 1 1h8a1 1 0 0 0 1-1v-2a1 1 0 0 0-1-1M29 16H15a1 1 0 0 0-1 1v2a1 1 0 0 0 1 1h14a1 1 0 0 0 1-1v-2a1 1 0 0 0-1-1M27 24H15a1 1 0 0 0-1 1v2a1 1 0 0 0 1 1h12a1 1 0 0 0 1-1v-2a1 1 0 0 0-1-1M38 6v34a6 6 0 0 1 6-6V0a6 6 0 0 0-6 6" fill="silver" mask="url(#b)"/><path d="M76 50c0-1.104-1.343-2-3-2H3c-1.657 0-3 .896-3 2s1.343 2 3 2h70c1.657 0 3-.896 3-2" fill="#357DB6" mask="url(#b)"/><path fill="#6ACCF2" mask="url(#b)" d="M48 37v7l8-2 8 2v-7z"/><path fill="silver" mask="url(#b)" d="M70 40h-4V0l4 6zM10 40H6V6l4-6z"/></g></svg>