<svg xmlns="http://www.w3.org/2000/svg" width="100" height="100"><g fill="none" fill-rule="evenodd"><path fill="#6ACCF2" d="M35 71h-6a1 1 0 0 1-1-1v-6a1 1 0 0 1 1-1h6a1 1 0 0 1 1 1v6a1 1 0 0 1-1 1"/><path fill="#4495D4" d="M47 71h-6a1 1 0 0 1-1-1V60a1 1 0 0 1 1-1h6a1 1 0 0 1 1 1v10a1 1 0 0 1-1 1"/><path fill="#6ACCF2" d="M59 71h-6a1 1 0 0 1-1-1V54a1 1 0 0 1 1-1h6a1 1 0 0 1 1 1v16a1 1 0 0 1-1 1"/><path fill="#4495D4" d="M71 71h-6a1 1 0 0 1-1-1V44a1 1 0 0 1 1-1h6a1 1 0 0 1 1 1v26a1 1 0 0 1-1 1"/><path fill="#6ACCF2" d="M72 22l-13 7 13 7z"/><path fill="#6ACCF2" d="M65.28 26.307C55.73 41.849 39.928 48.023 28 50.294V57.3c13.646-2.438 32.414-9.381 43.508-27.487 1.054-1.72.35-3.956-1.482-4.867a3.667 3.667 0 0 0-4.745 1.36"/><path fill="#AAA" fill-opacity=".3" d="M76 37v38H24V33h26a2 2 0 0 0 0-4H22a2 2 0 0 0-2 2v46a2 2 0 0 0 2 2h56a2 2 0 0 0 2-2V37a2 2 0 0 0-4 0"/></g></svg>