<?xml version="1.0" encoding="utf-8"?>
<!-- Generator: Adobe Illustrator 16.0.4, SVG Export Plug-In . SVG Version: 6.00 Build 0)  -->
<!DOCTYPE svg PUBLIC "-//W3C//DTD SVG 1.1//EN" "http://www.w3.org/Graphics/SVG/1.1/DTD/svg11.dtd">
<svg version="1.1"
	 id="svg3021" xmlns:dc="http://purl.org/dc/elements/1.1/" xmlns:cc="http://creativecommons.org/ns#" xmlns:rdf="http://www.w3.org/1999/02/22-rdf-syntax-ns#" xmlns:svg="http://www.w3.org/2000/svg" xmlns:sodipodi="http://sodipodi.sourceforge.net/DTD/sodipodi-0.dtd" xmlns:inkscape="http://www.inkscape.org/namespaces/inkscape" sodipodi:docname="E:\blekko.svg" inkscape:version="0.48.2 r9819"
	 xmlns="http://www.w3.org/2000/svg" xmlns:xlink="http://www.w3.org/1999/xlink" x="0px" y="0px" width="48px" height="14px"
	 viewBox="80.5 25 48 14" enable-background="new 80.5 25 48 14" xml:space="preserve">
<sodipodi:namedview  inkscape:cy="41.754895" inkscape:cx="139.08699" inkscape:zoom="4.6984823" showgrid="false" guidetolerance="10" gridtolerance="10" objecttolerance="10" bordercolor="#666666" pagecolor="#ffffff" borderopacity="1" id="namedview3053" inkscape:current-layer="svg3021" inkscape:window-maximized="0" inkscape:window-y="46" inkscape:window-x="136" inkscape:window-height="897" inkscape:window-width="1443" inkscape:pageshadow="2" inkscape:pageopacity="0">
	</sodipodi:namedview>
<g id="g3887" transform="matrix(1.028157,0,0,1.028157,-93.989475,-370.14784)">
	<g enable-background="new    ">
		<path fill="#690505" d="M170.76,396.704v-11.405h2.197v4.108c0.678-0.767,1.481-1.152,2.409-1.152c1.012,0,1.848,0.365,2.51,1.093
			c0.662,0.729,0.994,1.775,0.994,3.139c0,1.411-0.338,2.498-1.013,3.262c-0.675,0.762-1.495,1.144-2.46,1.144
			c-0.474,0-0.942-0.12-1.404-0.355c-0.461-0.236-0.859-0.585-1.192-1.047v1.214H170.76z M172.942,392.394
			c0,0.857,0.135,1.489,0.407,1.9c0.38,0.581,0.886,0.87,1.517,0.87c0.485,0,0.898-0.205,1.24-0.617
			c0.341-0.412,0.512-1.062,0.512-1.949c0-0.945-0.172-1.626-0.516-2.043c-0.344-0.418-0.785-0.627-1.322-0.627
			c-0.527,0-0.965,0.204-1.314,0.611C173.116,390.946,172.942,391.564,172.942,392.394z"/>
	</g>
	<g enable-background="new    ">
		<path fill="#690505" d="M179.556,396.706v-11.405h2.198v11.405H179.556z"/>
	</g>
	<g enable-background="new    ">
		<path fill="#690505" d="M188.214,394.106l2.274,0.372c-0.293,0.813-0.754,1.432-1.385,1.856c-0.631,0.426-1.42,0.638-2.368,0.638
			c-1.5,0-2.61-0.479-3.33-1.432c-0.569-0.766-0.853-1.732-0.853-2.899c0-1.393,0.374-2.484,1.121-3.273
			c0.748-0.789,1.693-1.183,2.835-1.183c1.284,0,2.296,0.413,3.038,1.239c0.742,0.826,1.097,2.091,1.064,3.797h-5.718
			c0.016,0.659,0.2,1.172,0.552,1.539c0.352,0.367,0.791,0.551,1.316,0.551c0.357,0,0.658-0.095,0.901-0.285
			C187.906,394.835,188.09,394.529,188.214,394.106z M188.344,391.858c-0.016-0.644-0.187-1.133-0.512-1.468
			c-0.325-0.335-0.72-0.503-1.186-0.503c-0.498,0-0.91,0.177-1.235,0.53s-0.484,0.834-0.479,1.441H188.344z"/>
	</g>
	<g enable-background="new    ">
		<path fill="#690505" d="M191.257,396.706v-11.405h2.23v6.053l2.61-2.91h2.747l-2.882,3.019l3.087,5.243h-2.405l-2.118-3.71
			l-1.039,1.066v2.644H191.257z"/>
	</g>
	<g enable-background="new    ">
		<path fill="#690505" d="M199.592,396.706v-11.405h2.23v6.053l2.612-2.91h2.745l-2.88,3.019l3.087,5.243h-2.405l-2.118-3.71
			l-1.041,1.066v2.644H199.592z"/>
	</g>
	<g enable-background="new    ">
		<path fill="#690505" d="M206.898,392.582c0-0.721,0.179-1.419,0.538-2.093c0.357-0.674,0.864-1.19,1.52-1.545
			c0.657-0.355,1.389-0.533,2.198-0.533c1.25,0,2.274,0.403,3.074,1.209c0.798,0.805,1.197,1.824,1.197,3.055
			c0,1.24-0.403,2.27-1.21,3.085c-0.805,0.817-1.822,1.225-3.045,1.225c-0.756,0-1.478-0.171-2.166-0.511
			c-0.688-0.34-1.21-0.838-1.567-1.495C207.077,394.324,206.898,393.524,206.898,392.582z M209.14,392.698
			c0,0.813,0.194,1.436,0.583,1.869c0.388,0.433,0.868,0.65,1.438,0.65c0.57,0,1.049-0.217,1.436-0.65
			c0.386-0.433,0.579-1.06,0.579-1.884c0-0.804-0.194-1.421-0.579-1.855c-0.388-0.432-0.866-0.648-1.436-0.648
			c-0.57,0-1.05,0.216-1.438,0.648C209.334,391.261,209.14,391.885,209.14,392.698z"/>
	</g>
</g>
</svg>
